<svg width="937" height="235" viewBox="0 0 937 235" fill="none" xmlns="http://www.w3.org/2000/svg">
<g filter="url(#filter0_d_2050_701)">
<mask id="path-1-outside-1_2050_701" maskUnits="userSpaceOnUse" x="108.439" y="53.2207" width="720" height="130" fill="black">
<rect fill="white" x="108.439" y="53.2207" width="720" height="130"/>
<path d="M284.761 159.638C279.911 162.063 275.38 163.595 271.169 164.233C266.957 164.871 263.128 165.19 259.682 165.19C256.172 165.19 253.045 164.743 250.301 163.85C247.557 162.956 245.037 161.808 242.739 160.404C240.506 159.064 238.432 157.596 236.517 156.001C234.603 154.405 232.72 152.906 230.87 151.502C229.019 150.162 227.137 149.045 225.222 148.151C223.372 147.258 221.329 146.811 219.096 146.811C217.054 146.811 214.98 147.003 212.874 147.386C215.427 144.323 217.309 140.717 218.522 136.569C219.734 132.357 220.34 127.954 220.34 123.36C220.34 122.019 220.277 120.647 220.149 119.243C220.021 117.776 219.766 116.372 219.383 115.032C219.064 113.628 218.554 112.32 217.852 111.107C217.213 109.831 216.352 108.714 215.267 107.757C217.054 104.438 218.266 101.407 218.905 98.6633C219.606 95.9193 219.957 93.0795 219.957 90.144C219.957 87.1447 219.766 84.8474 219.383 83.2521C219.064 81.5929 218.522 80.2847 217.756 79.3275C216.99 78.3702 216.001 77.5726 214.788 76.9344C213.64 76.2324 212.204 75.3071 210.481 74.1585C211.693 74.2861 212.842 74.3818 213.927 74.4456C215.076 74.5095 216.192 74.5414 217.277 74.5414C219.83 74.5414 222.191 74.4137 224.361 74.1585C226.53 73.9032 228.572 73.6161 230.487 73.297C232.401 72.9779 234.252 72.6907 236.039 72.4355C237.826 72.1802 239.644 72.0526 241.495 72.0526C242.771 72.0526 244.143 72.1483 245.611 72.3398C244.016 72.3398 242.484 72.946 241.016 74.1585C239.612 75.371 238.336 76.9344 237.187 78.8489C236.103 80.6995 235.209 82.7734 234.507 85.0708C233.869 87.3043 233.55 89.5059 233.55 91.6756V115.893C233.55 117.999 233.614 120.009 233.741 121.924C233.933 123.774 234.156 125.465 234.411 126.997C234.731 128.465 235.081 129.741 235.464 130.826C235.847 131.911 236.262 132.676 236.709 133.123C235.624 133.57 234.348 134.176 232.88 134.942C231.476 135.644 230.391 136.729 229.625 138.196C230.008 139.473 231.125 141.068 232.976 142.983C234.89 144.833 237.092 146.684 239.58 148.534C242.069 150.449 244.622 152.172 247.238 153.703C249.918 155.235 252.184 156.288 254.034 156.862C253.205 155.777 252.375 154.501 251.546 153.033C250.78 151.629 250.142 150.385 249.631 149.3C252.567 151.087 255.279 152.587 257.768 153.799C260.256 155.012 262.586 156.001 264.755 156.766C266.989 157.532 269.127 158.075 271.169 158.394C273.211 158.713 275.285 158.872 277.391 158.872C278.475 158.872 279.592 158.809 280.741 158.681C281.89 158.617 283.102 158.521 284.378 158.394L284.761 159.638Z"/>
<path d="M274.154 143.078C275.111 142.504 275.941 141.419 276.643 139.824C277.409 138.228 278.047 136.41 278.557 134.368C279.131 132.325 279.546 130.22 279.802 128.05C280.057 125.816 280.184 123.774 280.184 121.924C280.184 119.052 279.865 116.308 279.227 113.692C278.653 111.075 277.823 109.097 276.738 107.757C277.759 106.736 278.589 105.396 279.227 103.737C279.929 102.014 280.472 100.195 280.855 98.2804C281.237 96.3021 281.493 94.292 281.62 92.2499C281.748 90.2078 281.812 88.2934 281.812 86.5066C281.812 85.0389 281.78 83.7626 281.716 82.6777C281.652 81.5929 281.588 80.7633 281.525 80.189C280.057 79.6784 278.525 78.6255 276.93 77.0301C275.398 75.4348 274.25 73.7118 273.484 71.8612C277.568 72.3079 281.429 72.6269 285.066 72.8184C288.768 72.946 292.245 73.0098 295.5 73.0098C302.456 73.0098 308.071 72.7865 312.347 72.3398C316.623 71.8931 320.005 71.6697 322.494 71.6697C323.004 71.6697 323.451 71.7016 323.834 71.7654C324.217 71.7654 324.567 71.7973 324.887 71.8612C324.504 72.5631 324.089 73.8394 323.642 75.69C323.259 77.5407 322.876 79.5827 322.494 81.8162C322.111 83.9859 321.76 86.1237 321.441 88.2296C321.185 90.2717 320.994 91.8032 320.866 92.8242L320.196 93.1114C317.963 91.8351 316.335 90.3993 315.314 88.8039C314.357 87.2086 313.623 85.2941 313.113 83.0606C312.219 82.3587 311.103 81.9119 309.763 81.7205C308.422 81.5291 306.731 81.4333 304.689 81.4333C303.03 81.4333 301.435 81.4652 299.903 81.5291C298.372 81.5929 297.159 81.6248 296.266 81.6248C295.755 84.1135 295.372 87.1447 295.117 90.7184C294.862 94.292 294.67 98.0889 294.543 102.109C295.436 102.237 296.33 102.333 297.223 102.396C298.18 102.396 298.914 102.396 299.425 102.396C300.765 102.396 302.073 101.886 303.349 100.865C304.689 99.78 305.966 98.408 307.178 96.7488C307.497 97.5146 307.816 98.408 308.135 99.4291C308.454 100.386 308.805 101.375 309.188 102.396C309.635 103.354 310.113 104.279 310.624 105.172C311.135 106.066 311.741 106.736 312.443 107.183C311.868 107.757 311.294 108.491 310.72 109.384C310.209 110.278 309.699 111.235 309.188 112.256C308.741 113.277 308.295 114.298 307.848 115.319C307.465 116.34 307.114 117.265 306.795 118.095C306.412 117.393 305.966 116.627 305.455 115.797C304.945 114.968 304.402 114.202 303.828 113.5C303.253 112.798 302.615 112.224 301.913 111.777C301.275 111.267 300.573 111.011 299.807 111.011C299.233 111.011 298.404 111.043 297.319 111.107C296.234 111.171 295.245 111.299 294.351 111.49V113.213C294.351 117.233 294.383 121.062 294.447 124.7C294.575 128.273 294.766 131.4 295.021 134.08L311.198 135.708C312.092 131.751 313.655 128.241 315.889 125.178C318.186 122.115 320.643 119.148 323.259 116.276L323.834 116.468C323.642 117.935 323.515 119.403 323.451 120.871C323.387 122.275 323.355 123.647 323.355 124.987C323.355 128.305 323.515 131.304 323.834 133.985C324.153 136.665 324.536 138.675 324.982 140.015C323.897 140.143 322.813 140.334 321.728 140.589C320.707 140.781 319.59 141.132 318.377 141.642C317.165 142.153 315.857 142.855 314.453 143.748C313.113 144.642 311.613 145.79 309.954 147.194C304.594 145.599 299.297 144.386 294.064 143.557C288.831 142.791 284.109 142.408 279.897 142.408C277.855 142.408 275.973 142.727 274.25 143.365L274.154 143.078Z"/>
<path d="M384.813 137.143L366.722 105.364V120.009C366.722 123.966 366.849 127.284 367.104 129.964C367.36 132.645 367.774 134.974 368.349 136.952C368.923 138.93 369.657 140.685 370.55 142.217C371.444 143.684 372.529 145.184 373.805 146.716C372.401 146.333 371.157 145.95 370.072 145.567C369.051 145.184 368.03 144.737 367.009 144.227C366.051 143.716 365.03 143.078 363.946 142.312C362.925 141.547 361.712 140.589 360.308 139.441C359.415 140.972 358.426 142.376 357.341 143.653C356.32 144.993 355.075 146.237 353.608 147.386C352.204 148.534 350.576 149.587 348.726 150.545C346.875 151.502 344.705 152.363 342.217 153.129C344.131 151.278 345.918 149.173 347.577 146.811C349.236 144.514 350.672 142.057 351.885 139.441C353.161 136.761 354.15 134.017 354.852 131.209C355.618 128.401 356.001 125.561 356.001 122.689C356.001 120.009 355.65 117.425 354.948 114.936C354.31 112.447 353.225 110.054 351.693 107.757C354.82 101.758 356.384 96.3979 356.384 91.6756C356.384 87.6553 355.331 84.0497 353.225 80.859C351.183 77.6045 348.247 74.6052 344.418 71.8612C345.056 71.6697 345.79 71.574 346.62 71.574C347.896 71.574 349.3 71.7335 350.832 72.0526C352.427 72.3079 354.15 72.595 356.001 72.9141C357.915 73.2332 359.989 73.5522 362.223 73.8713C364.456 74.1266 366.913 74.2542 369.593 74.2542C370.231 74.2542 370.838 74.2542 371.412 74.2542C372.05 74.2542 372.688 74.2223 373.326 74.1585C372.752 74.6052 372.21 75.1795 371.699 75.8815C371.252 76.5834 370.838 77.3492 370.455 78.1788C370.072 79.0084 369.753 79.8699 369.497 80.7633C369.306 81.6567 369.21 82.4863 369.21 83.2521L388.259 116.085L404.149 83.8264C403.383 81.5929 402.49 79.7103 401.469 78.1788C400.511 76.6472 399.235 75.2114 397.64 73.8713C398.086 73.9989 398.501 74.0628 398.884 74.0628C399.267 74.0628 399.682 74.0628 400.128 74.0628C402.298 74.0628 404.564 73.9989 406.925 73.8713C409.286 73.6799 411.647 73.4565 414.008 73.2013C416.369 72.8822 418.667 72.5631 420.9 72.244C423.134 71.8611 425.271 71.5102 427.313 71.1911C425.399 72.5312 423.836 73.9989 422.623 75.5943C421.474 77.1259 420.581 78.7531 419.943 80.4761C419.369 82.1991 418.954 84.0178 418.699 85.9323C418.507 87.7829 418.411 89.6973 418.411 91.6756C418.411 94.1005 418.826 96.6212 419.656 99.2376C420.485 101.854 421.698 104.694 423.293 107.757C422.145 109.799 421.092 112.352 420.134 115.415C419.241 118.478 418.794 121.541 418.794 124.604C418.794 127.922 419.369 131.017 420.517 133.889C421.73 136.761 423.453 138.898 425.686 140.302C424.346 141.004 423.006 141.834 421.666 142.791C420.326 143.684 419.081 144.642 417.933 145.663C416.784 146.748 415.763 147.832 414.87 148.917C413.976 150.002 413.306 151.023 412.859 151.98C412.54 151.023 411.966 149.97 411.136 148.822C410.371 147.673 409.413 146.556 408.265 145.471C407.116 144.386 405.872 143.397 404.532 142.504C403.192 141.547 401.851 140.813 400.511 140.302C401.532 139.409 402.33 138.228 402.904 136.761C403.543 135.293 403.989 133.666 404.245 131.879C404.564 130.092 404.755 128.178 404.819 126.135C404.946 124.093 405.01 122.051 405.01 120.009V101.918L386.44 137.431L384.813 137.143Z"/>
<path d="M532.489 96.5574C531.213 95.664 530.128 94.7706 529.235 93.8772C528.405 92.92 527.703 91.8989 527.129 90.8141C526.555 89.7292 526.076 88.5487 525.693 87.2724C525.31 85.9961 524.991 84.5922 524.736 83.0606C523.843 82.3587 522.407 81.9119 520.428 81.7205C518.45 81.5291 516.44 81.4333 514.398 81.4333C512.739 81.4333 511.303 81.4652 510.09 81.5291C508.878 81.5929 507.825 81.6248 506.932 81.6248C506.357 83.2201 505.974 85.9642 505.783 89.8569C505.592 93.6857 505.496 98.0889 505.496 103.066C505.496 105.747 505.496 108.491 505.496 111.299C505.56 114.106 505.592 116.882 505.592 119.626C505.655 122.37 505.687 125.051 505.687 127.667C505.751 130.22 505.783 132.613 505.783 134.846C507.697 135.293 509.261 135.708 510.473 136.091C511.686 136.41 512.866 136.697 514.015 136.952C515.164 137.143 516.472 137.335 517.94 137.526C519.407 137.654 521.354 137.782 523.779 137.909C523.906 137.399 523.97 136.314 523.97 134.655C524.034 132.932 524.066 130.953 524.066 128.72C524.066 126.231 524.034 124.157 523.97 122.498C523.97 120.839 523.906 119.18 523.779 117.52C522.949 117.52 522.247 117.457 521.673 117.329C521.162 117.138 520.524 116.946 519.758 116.755C519.056 116.563 518.099 116.372 516.887 116.18C515.738 115.989 514.175 115.829 512.196 115.702C512.452 115.255 512.771 114.681 513.154 113.979C513.536 113.213 513.919 112.415 514.302 111.586C514.685 110.756 515.004 109.99 515.259 109.288C515.579 108.523 515.802 107.884 515.929 107.374C518.354 107.884 520.716 108.267 523.013 108.523C525.374 108.778 527.608 108.906 529.713 108.906C531.883 108.906 533.861 108.778 535.648 108.523C537.435 108.204 538.935 107.693 540.147 106.991C539.956 107.502 539.605 108.235 539.094 109.193C538.647 110.086 538.169 111.075 537.658 112.16C537.148 113.181 536.701 114.202 536.318 115.223C535.935 116.244 535.744 117.138 535.744 117.903C535.935 120.584 536.095 123.168 536.223 125.657C536.35 128.146 536.478 130.411 536.605 132.453C536.797 134.431 536.956 136.091 537.084 137.431C537.212 138.771 537.371 139.632 537.563 140.015C534.563 140.717 531.724 141.802 529.043 143.27C526.363 144.801 523.236 147.067 519.663 150.066C516.855 148.343 513.856 146.875 510.665 145.663C507.474 144.45 504.315 143.397 501.188 142.504C498.125 141.547 495.158 140.717 492.286 140.015C489.478 139.313 487.021 138.611 484.916 137.909C485.937 137.654 486.798 137.048 487.5 136.091C488.266 135.07 488.872 133.825 489.319 132.357C489.829 130.89 490.212 129.262 490.467 127.476C490.723 125.625 490.85 123.774 490.85 121.924C490.85 119.052 490.531 116.308 489.893 113.692C489.319 111.075 488.489 109.097 487.404 107.757C488.425 106.736 489.255 105.396 489.893 103.737C490.595 102.014 491.138 100.195 491.52 98.2804C491.903 96.3021 492.159 94.292 492.286 92.2499C492.414 90.2078 492.478 88.2934 492.478 86.5066C492.478 85.0389 492.446 83.7626 492.382 82.6777C492.318 81.5929 492.254 80.7633 492.19 80.189C490.723 79.6784 489.191 78.6255 487.596 77.0301C486.064 75.4348 484.916 73.7118 484.15 71.8612C488.234 72.3079 492.095 72.6269 495.732 72.8184C499.433 72.946 502.911 73.0098 506.166 73.0098C513.249 73.0098 519.056 72.7865 523.587 72.3398C528.118 71.8931 531.628 71.6697 534.117 71.6697C534.627 71.6697 535.074 71.7016 535.457 71.7654C535.84 71.7654 536.191 71.7973 536.51 71.8612C536.254 72.4355 535.967 73.4246 535.648 74.8285C535.393 76.1686 535.106 77.7002 534.787 79.4232C534.468 81.0824 534.18 82.8692 533.925 84.7836C533.67 86.6342 533.415 88.3891 533.159 90.0483C532.968 91.6437 532.808 93.0476 532.681 94.2601C532.553 95.4725 532.489 96.2383 532.489 96.5574Z"/>
<path d="M636.574 148.439C632.937 147.162 629.331 145.758 625.758 144.227C622.248 142.759 618.77 141.004 615.324 138.962C614.494 139.792 613.76 140.494 613.122 141.068C612.484 141.642 611.814 142.153 611.112 142.6C610.41 142.983 609.644 143.302 608.815 143.557C608.049 143.876 607.124 144.163 606.039 144.418C606.677 143.653 607.124 142.727 607.379 141.642C607.634 140.558 607.762 139.441 607.762 138.292C607.762 136.442 607.507 134.655 606.996 132.932C606.549 131.145 606.135 129.645 605.752 128.433L603.454 121.158C601.604 123.583 599.753 126.263 597.903 129.199C596.116 132.134 594.552 134.942 593.212 137.622C592.127 136.091 590.66 133.921 588.809 131.113C587.022 128.305 585.012 125.274 582.779 122.019L581.247 126.997C580.864 128.273 580.545 129.55 580.29 130.826C580.098 132.102 580.003 133.41 580.003 134.75C580.003 136.729 580.258 138.675 580.768 140.589C581.279 142.504 582.109 144.291 583.257 145.95C581.981 145.503 580.896 145.056 580.003 144.61C579.173 144.163 578.375 143.653 577.61 143.078C576.908 142.504 576.174 141.898 575.408 141.26C574.706 140.558 573.876 139.76 572.919 138.866C570.239 141.419 567.591 143.206 564.974 144.227C562.358 145.312 559.422 145.886 556.168 145.95C557.38 145.758 558.657 144.961 559.997 143.557C561.337 142.217 562.645 140.462 563.921 138.292C565.198 136.059 566.41 133.538 567.559 130.73C568.771 127.922 569.824 124.955 570.718 121.828L573.781 111.107C571.547 108.746 569.122 106.736 566.506 105.077C563.889 103.354 561.528 102.492 559.422 102.492C559.295 102.492 559.135 102.492 558.944 102.492C558.752 102.492 558.369 102.524 557.795 102.588L557.699 102.301C560.443 100.897 562.996 100.195 565.357 100.195C566.953 100.195 568.58 100.514 570.239 101.152C571.898 101.726 573.813 102.62 575.982 103.832L581.151 86.1237C581.47 85.0389 581.694 84.0816 581.821 83.2521C581.949 82.4225 582.013 81.7524 582.013 81.2419C582.013 79.9018 581.598 78.9446 580.768 78.3702C580.003 77.7959 578.599 77.5087 576.557 77.5087C575.28 77.5087 573.908 77.6045 572.441 77.7959C570.973 77.9874 569.218 78.2745 567.176 78.6574C567.559 78.0831 568.484 77.413 569.952 76.6472C571.42 75.8815 573.174 75.1476 575.217 74.4456C577.322 73.7437 579.556 73.1694 581.917 72.7226C584.342 72.2121 586.671 71.9569 588.905 71.9569C590.564 71.9569 592.159 72.1483 593.691 72.5312C595.222 72.9141 596.371 73.5841 597.137 74.5414C598.286 74.4775 599.53 74.318 600.87 74.0628C602.21 73.8075 603.486 73.5203 604.699 73.2013C605.911 72.8184 606.996 72.4674 607.953 72.1483C608.911 71.7654 609.549 71.4783 609.868 71.2868C608.974 72.5631 608.304 74.0947 607.858 75.8815C607.475 77.6045 607.283 79.487 607.283 81.5291C607.283 84.1455 607.57 86.8895 608.145 89.7611C608.719 92.569 609.389 95.1854 610.155 97.6103C610.985 100.035 611.846 102.109 612.74 103.832C613.633 105.555 614.399 106.608 615.037 106.991C615.037 110.756 615.675 114.745 616.951 118.956C618.291 123.168 619.982 127.188 622.025 131.017C624.13 134.846 626.46 138.292 629.012 141.355C631.629 144.355 634.181 146.62 636.67 148.151L636.574 148.439ZM593.117 121.924C594.201 120.456 595.414 118.893 596.754 117.233C598.158 115.51 599.434 113.819 600.583 112.16L593.212 88.2296L585.65 112.926C586.926 114.266 588.203 115.766 589.479 117.425C590.819 119.084 592.032 120.584 593.117 121.924Z"/>
<path d="M683.14 137.143L665.048 105.364V120.009C665.048 123.966 665.176 127.284 665.431 129.964C665.687 132.645 666.101 134.974 666.676 136.952C667.25 138.93 667.984 140.685 668.877 142.217C669.771 143.684 670.856 145.184 672.132 146.716C670.728 146.333 669.484 145.95 668.399 145.567C667.378 145.184 666.357 144.737 665.336 144.227C664.378 143.716 663.357 143.078 662.273 142.312C661.252 141.547 660.039 140.589 658.635 139.441C657.742 140.972 656.753 142.376 655.668 143.653C654.647 144.993 653.402 146.237 651.935 147.386C650.531 148.534 648.903 149.587 647.053 150.545C645.202 151.502 643.032 152.363 640.544 153.129C642.458 151.278 644.245 149.173 645.904 146.811C647.563 144.514 648.999 142.057 650.212 139.441C651.488 136.761 652.477 134.017 653.179 131.209C653.945 128.401 654.328 125.561 654.328 122.689C654.328 120.009 653.977 117.425 653.275 114.936C652.637 112.447 651.552 110.054 650.02 107.757C653.147 101.758 654.711 96.3979 654.711 91.6756C654.711 87.6553 653.658 84.0497 651.552 80.859C649.51 77.6045 646.574 74.6052 642.745 71.8612C643.383 71.6697 644.117 71.574 644.947 71.574C646.223 71.574 647.627 71.7335 649.159 72.0526C650.754 72.3079 652.477 72.595 654.328 72.9141C656.242 73.2332 658.316 73.5522 660.55 73.8713C662.783 74.1266 665.24 74.2542 667.92 74.2542C668.558 74.2542 669.165 74.2542 669.739 74.2542C670.377 74.2542 671.015 74.2223 671.653 74.1585C671.079 74.6052 670.537 75.1795 670.026 75.8815C669.579 76.5834 669.165 77.3492 668.782 78.1788C668.399 79.0084 668.08 79.8699 667.824 80.7633C667.633 81.6567 667.537 82.4863 667.537 83.2521L686.586 116.085L702.476 83.8264C701.71 81.5929 700.817 79.7103 699.796 78.1788C698.838 76.6472 697.562 75.2114 695.967 73.8713C696.413 73.9989 696.828 74.0628 697.211 74.0628C697.594 74.0628 698.009 74.0628 698.455 74.0628C700.625 74.0628 702.891 73.9989 705.252 73.8713C707.613 73.6799 709.974 73.4565 712.335 73.2013C714.696 72.8822 716.994 72.5631 719.227 72.244C721.461 71.8611 723.598 71.5102 725.64 71.1911C723.726 72.5312 722.163 73.9989 720.95 75.5943C719.801 77.1259 718.908 78.7531 718.27 80.4761C717.695 82.1991 717.281 84.0178 717.025 85.9323C716.834 87.7829 716.738 89.6973 716.738 91.6756C716.738 94.1005 717.153 96.6212 717.983 99.2376C718.812 101.854 720.025 104.694 721.62 107.757C720.471 109.799 719.419 112.352 718.461 115.415C717.568 118.478 717.121 121.541 717.121 124.604C717.121 127.922 717.696 131.017 718.844 133.889C720.057 136.761 721.78 138.898 724.013 140.302C722.673 141.004 721.333 141.834 719.993 142.791C718.653 143.684 717.408 144.642 716.26 145.663C715.111 146.748 714.09 147.832 713.197 148.917C712.303 150.002 711.633 151.023 711.186 151.98C710.867 151.023 710.293 149.97 709.463 148.822C708.698 147.673 707.74 146.556 706.592 145.471C705.443 144.386 704.199 143.397 702.859 142.504C701.519 141.547 700.178 140.813 698.838 140.302C699.859 139.409 700.657 138.228 701.231 136.761C701.869 135.293 702.316 133.666 702.572 131.879C702.891 130.092 703.082 128.178 703.146 126.135C703.273 124.093 703.337 122.051 703.337 120.009V101.918L684.767 137.431L683.14 137.143Z"/>
<path d="M113.54 173.542C115.113 172.599 116.476 170.816 117.629 168.195C118.887 165.574 119.936 162.586 120.775 159.231C121.718 155.876 122.4 152.416 122.819 148.851C123.238 145.182 123.448 141.827 123.448 138.786C123.448 134.068 122.924 129.56 121.875 125.261C120.932 120.962 119.569 117.712 117.787 115.51C119.464 113.833 120.827 111.631 121.875 108.905C123.029 106.074 123.92 103.086 124.549 99.941C125.178 96.6908 125.597 93.3882 125.807 90.0332C126.017 86.6781 126.122 83.5328 126.122 80.5971C126.122 78.1857 126.069 76.0888 125.964 74.3064C125.86 72.5241 125.755 71.1611 125.65 70.2175C123.238 69.3787 120.722 67.6488 118.101 65.0277C115.585 62.4066 113.698 59.5757 112.439 56.5352C119.15 57.2692 125.493 57.7934 131.469 58.1079C137.55 58.3176 143.264 58.4224 148.611 58.4224C160.039 58.4224 169.265 58.0555 176.29 57.3216C183.315 56.5877 188.871 56.2207 192.96 56.2207C193.799 56.2207 194.533 56.2731 195.162 56.378C195.791 56.378 196.368 56.4304 196.892 56.5352C196.263 57.6885 195.581 59.7854 194.848 62.8259C194.218 65.8664 193.589 69.2215 192.96 72.891C192.331 76.4558 191.755 79.9681 191.23 83.428C190.811 86.783 190.496 89.2993 190.287 90.9768L189.186 91.4486C185.516 89.3517 182.843 86.9927 181.165 84.3716C179.593 81.7504 178.387 78.6051 177.548 74.9355C176.08 73.7822 174.246 73.0483 172.044 72.7338C169.842 72.4192 167.064 72.262 163.709 72.262C160.983 72.262 158.362 72.3144 155.845 72.4192C153.329 72.5241 151.337 72.5765 149.869 72.5765C149.03 76.6655 148.401 81.6456 147.982 87.5169C147.562 93.3882 147.248 99.6265 147.038 106.232C148.506 106.441 149.974 106.599 151.442 106.704C153.014 106.704 154.22 106.704 155.059 106.704C157.261 106.704 159.41 105.865 161.507 104.187C163.709 102.405 165.805 100.151 167.798 97.4247C168.322 98.6829 168.846 100.151 169.37 101.828C169.894 103.401 170.471 105.026 171.1 106.704C171.834 108.276 172.62 109.796 173.459 111.264C174.298 112.732 175.294 113.833 176.447 114.567C175.504 115.51 174.56 116.716 173.616 118.184C172.778 119.652 171.939 121.225 171.1 122.902C170.366 124.58 169.632 126.257 168.898 127.935C168.269 129.612 167.693 131.132 167.168 132.495C166.539 131.342 165.805 130.084 164.967 128.721C164.128 127.358 163.237 126.1 162.293 124.947C161.35 123.793 160.301 122.85 159.148 122.116C158.099 121.277 156.946 120.858 155.688 120.858C154.744 120.858 153.381 120.91 151.599 121.015C149.817 121.12 148.192 121.329 146.724 121.644V124.475C146.724 131.08 146.776 137.371 146.881 143.347C147.091 149.218 147.405 154.356 147.825 158.759L174.403 161.433C175.871 154.932 178.439 149.166 182.109 144.133C185.883 139.101 189.92 134.225 194.218 129.507L195.162 129.822C194.848 132.233 194.638 134.645 194.533 137.056C194.428 139.363 194.376 141.617 194.376 143.819C194.376 149.271 194.638 154.198 195.162 158.602C195.686 163.005 196.315 166.308 197.049 168.51C195.267 168.719 193.485 169.034 191.702 169.453C190.025 169.768 188.19 170.344 186.198 171.183C184.206 172.022 182.056 173.175 179.75 174.643C177.548 176.111 175.084 177.998 172.358 180.305C163.551 177.684 154.849 175.691 146.252 174.328C137.655 173.07 129.896 172.441 122.976 172.441C119.621 172.441 116.528 172.965 113.698 174.014L113.54 173.542Z"/>
<path d="M741.05 173.542C742.623 172.599 743.986 170.816 745.139 168.195C746.398 165.574 747.446 162.586 748.285 159.231C749.228 155.876 749.91 152.416 750.329 148.851C750.749 145.182 750.958 141.827 750.958 138.786C750.958 134.068 750.434 129.56 749.386 125.261C748.442 120.962 747.079 117.712 745.297 115.51C746.974 113.833 748.337 111.631 749.386 108.905C750.539 106.074 751.43 103.086 752.059 99.941C752.688 96.6908 753.108 93.3882 753.317 90.0332C753.527 86.6781 753.632 83.5328 753.632 80.5971C753.632 78.1857 753.579 76.0888 753.475 74.3064C753.37 72.5241 753.265 71.1611 753.16 70.2175C750.749 69.3787 748.232 67.6488 745.611 65.0277C743.095 62.4066 741.208 59.5757 739.95 56.5352C746.66 57.2692 753.003 57.7934 758.979 58.1079C765.06 58.3176 770.774 58.4224 776.121 58.4224C787.549 58.4224 796.775 58.0555 803.8 57.3216C810.825 56.5877 816.381 56.2207 820.47 56.2207C821.309 56.2207 822.043 56.2731 822.672 56.378C823.301 56.378 823.878 56.4304 824.402 56.5352C823.773 57.6885 823.092 59.7854 822.358 62.8259C821.729 65.8664 821.1 69.2215 820.47 72.891C819.841 76.4558 819.265 79.9681 818.741 83.428C818.321 86.783 818.007 89.2993 817.797 90.9768L816.696 91.4486C813.026 89.3517 810.353 86.9927 808.675 84.3716C807.103 81.7504 805.897 78.6051 805.058 74.9355C803.59 73.7822 801.756 73.0483 799.554 72.7338C797.352 72.4192 794.574 72.262 791.219 72.262C788.493 72.262 785.872 72.3144 783.355 72.4192C780.839 72.5241 778.847 72.5765 777.379 72.5765C776.54 76.6655 775.911 81.6456 775.492 87.5169C775.073 93.3882 774.758 99.6265 774.548 106.232C776.016 106.441 777.484 106.599 778.952 106.704C780.525 106.704 781.73 106.704 782.569 106.704C784.771 106.704 786.92 105.865 789.017 104.187C791.219 102.405 793.316 100.151 795.308 97.4247C795.832 98.6829 796.356 100.151 796.88 101.828C797.405 103.401 797.981 105.026 798.61 106.704C799.344 108.276 800.13 109.796 800.969 111.264C801.808 112.732 802.804 113.833 803.957 114.567C803.014 115.51 802.07 116.716 801.127 118.184C800.288 119.652 799.449 121.225 798.61 122.902C797.876 124.58 797.142 126.257 796.409 127.935C795.779 129.612 795.203 131.132 794.679 132.495C794.049 131.342 793.316 130.084 792.477 128.721C791.638 127.358 790.747 126.1 789.803 124.947C788.86 123.793 787.811 122.85 786.658 122.116C785.61 121.277 784.456 120.858 783.198 120.858C782.255 120.858 780.891 120.91 779.109 121.015C777.327 121.12 775.702 121.329 774.234 121.644V124.475C774.234 131.08 774.286 137.371 774.391 143.347C774.601 149.218 774.915 154.356 775.335 158.759L801.913 161.433C803.381 154.932 805.949 149.166 809.619 144.133C813.393 139.101 817.43 134.225 821.729 129.507L822.672 129.822C822.358 132.233 822.148 134.645 822.043 137.056C821.938 139.363 821.886 141.617 821.886 143.819C821.886 149.271 822.148 154.198 822.672 158.602C823.196 163.005 823.825 166.308 824.559 168.51C822.777 168.719 820.995 169.034 819.212 169.453C817.535 169.768 815.7 170.344 813.708 171.183C811.716 172.022 809.567 173.175 807.26 174.643C805.058 176.111 802.594 177.998 799.868 180.305C791.061 177.684 782.359 175.691 773.762 174.328C765.165 173.07 757.406 172.441 750.486 172.441C747.131 172.441 744.038 172.965 741.208 174.014L741.05 173.542Z"/>
</mask>
<path d="M284.761 159.638C279.911 162.063 275.38 163.595 271.169 164.233C266.957 164.871 263.128 165.19 259.682 165.19C256.172 165.19 253.045 164.743 250.301 163.85C247.557 162.956 245.037 161.808 242.739 160.404C240.506 159.064 238.432 157.596 236.517 156.001C234.603 154.405 232.72 152.906 230.87 151.502C229.019 150.162 227.137 149.045 225.222 148.151C223.372 147.258 221.329 146.811 219.096 146.811C217.054 146.811 214.98 147.003 212.874 147.386C215.427 144.323 217.309 140.717 218.522 136.569C219.734 132.357 220.34 127.954 220.34 123.36C220.34 122.019 220.277 120.647 220.149 119.243C220.021 117.776 219.766 116.372 219.383 115.032C219.064 113.628 218.554 112.32 217.852 111.107C217.213 109.831 216.352 108.714 215.267 107.757C217.054 104.438 218.266 101.407 218.905 98.6633C219.606 95.9193 219.957 93.0795 219.957 90.144C219.957 87.1447 219.766 84.8474 219.383 83.2521C219.064 81.5929 218.522 80.2847 217.756 79.3275C216.99 78.3702 216.001 77.5726 214.788 76.9344C213.64 76.2324 212.204 75.3071 210.481 74.1585C211.693 74.2861 212.842 74.3818 213.927 74.4456C215.076 74.5095 216.192 74.5414 217.277 74.5414C219.83 74.5414 222.191 74.4137 224.361 74.1585C226.53 73.9032 228.572 73.6161 230.487 73.297C232.401 72.9779 234.252 72.6907 236.039 72.4355C237.826 72.1802 239.644 72.0526 241.495 72.0526C242.771 72.0526 244.143 72.1483 245.611 72.3398C244.016 72.3398 242.484 72.946 241.016 74.1585C239.612 75.371 238.336 76.9344 237.187 78.8489C236.103 80.6995 235.209 82.7734 234.507 85.0708C233.869 87.3043 233.55 89.5059 233.55 91.6756V115.893C233.55 117.999 233.614 120.009 233.741 121.924C233.933 123.774 234.156 125.465 234.411 126.997C234.731 128.465 235.081 129.741 235.464 130.826C235.847 131.911 236.262 132.676 236.709 133.123C235.624 133.57 234.348 134.176 232.88 134.942C231.476 135.644 230.391 136.729 229.625 138.196C230.008 139.473 231.125 141.068 232.976 142.983C234.89 144.833 237.092 146.684 239.58 148.534C242.069 150.449 244.622 152.172 247.238 153.703C249.918 155.235 252.184 156.288 254.034 156.862C253.205 155.777 252.375 154.501 251.546 153.033C250.78 151.629 250.142 150.385 249.631 149.3C252.567 151.087 255.279 152.587 257.768 153.799C260.256 155.012 262.586 156.001 264.755 156.766C266.989 157.532 269.127 158.075 271.169 158.394C273.211 158.713 275.285 158.872 277.391 158.872C278.475 158.872 279.592 158.809 280.741 158.681C281.89 158.617 283.102 158.521 284.378 158.394L284.761 159.638Z" fill="url(#paint0_linear_2050_701)" shape-rendering="crispEdges"/>
<path d="M274.154 143.078C275.111 142.504 275.941 141.419 276.643 139.824C277.409 138.228 278.047 136.41 278.557 134.368C279.131 132.325 279.546 130.22 279.802 128.05C280.057 125.816 280.184 123.774 280.184 121.924C280.184 119.052 279.865 116.308 279.227 113.692C278.653 111.075 277.823 109.097 276.738 107.757C277.759 106.736 278.589 105.396 279.227 103.737C279.929 102.014 280.472 100.195 280.855 98.2804C281.237 96.3021 281.493 94.292 281.62 92.2499C281.748 90.2078 281.812 88.2934 281.812 86.5066C281.812 85.0389 281.78 83.7626 281.716 82.6777C281.652 81.5929 281.588 80.7633 281.525 80.189C280.057 79.6784 278.525 78.6255 276.93 77.0301C275.398 75.4348 274.25 73.7118 273.484 71.8612C277.568 72.3079 281.429 72.6269 285.066 72.8184C288.768 72.946 292.245 73.0098 295.5 73.0098C302.456 73.0098 308.071 72.7865 312.347 72.3398C316.623 71.8931 320.005 71.6697 322.494 71.6697C323.004 71.6697 323.451 71.7016 323.834 71.7654C324.217 71.7654 324.567 71.7973 324.887 71.8612C324.504 72.5631 324.089 73.8394 323.642 75.69C323.259 77.5407 322.876 79.5827 322.494 81.8162C322.111 83.9859 321.76 86.1237 321.441 88.2296C321.185 90.2717 320.994 91.8032 320.866 92.8242L320.196 93.1114C317.963 91.8351 316.335 90.3993 315.314 88.8039C314.357 87.2086 313.623 85.2941 313.113 83.0606C312.219 82.3587 311.103 81.9119 309.763 81.7205C308.422 81.5291 306.731 81.4333 304.689 81.4333C303.03 81.4333 301.435 81.4652 299.903 81.5291C298.372 81.5929 297.159 81.6248 296.266 81.6248C295.755 84.1135 295.372 87.1447 295.117 90.7184C294.862 94.292 294.67 98.0889 294.543 102.109C295.436 102.237 296.33 102.333 297.223 102.396C298.18 102.396 298.914 102.396 299.425 102.396C300.765 102.396 302.073 101.886 303.349 100.865C304.689 99.78 305.966 98.408 307.178 96.7488C307.497 97.5146 307.816 98.408 308.135 99.4291C308.454 100.386 308.805 101.375 309.188 102.396C309.635 103.354 310.113 104.279 310.624 105.172C311.135 106.066 311.741 106.736 312.443 107.183C311.868 107.757 311.294 108.491 310.72 109.384C310.209 110.278 309.699 111.235 309.188 112.256C308.741 113.277 308.295 114.298 307.848 115.319C307.465 116.34 307.114 117.265 306.795 118.095C306.412 117.393 305.966 116.627 305.455 115.797C304.945 114.968 304.402 114.202 303.828 113.5C303.253 112.798 302.615 112.224 301.913 111.777C301.275 111.267 300.573 111.011 299.807 111.011C299.233 111.011 298.404 111.043 297.319 111.107C296.234 111.171 295.245 111.299 294.351 111.49V113.213C294.351 117.233 294.383 121.062 294.447 124.7C294.575 128.273 294.766 131.4 295.021 134.08L311.198 135.708C312.092 131.751 313.655 128.241 315.889 125.178C318.186 122.115 320.643 119.148 323.259 116.276L323.834 116.468C323.642 117.935 323.515 119.403 323.451 120.871C323.387 122.275 323.355 123.647 323.355 124.987C323.355 128.305 323.515 131.304 323.834 133.985C324.153 136.665 324.536 138.675 324.982 140.015C323.897 140.143 322.813 140.334 321.728 140.589C320.707 140.781 319.59 141.132 318.377 141.642C317.165 142.153 315.857 142.855 314.453 143.748C313.113 144.642 311.613 145.79 309.954 147.194C304.594 145.599 299.297 144.386 294.064 143.557C288.831 142.791 284.109 142.408 279.897 142.408C277.855 142.408 275.973 142.727 274.25 143.365L274.154 143.078Z" fill="url(#paint1_linear_2050_701)" shape-rendering="crispEdges"/>
<path d="M384.813 137.143L366.722 105.364V120.009C366.722 123.966 366.849 127.284 367.104 129.964C367.36 132.645 367.774 134.974 368.349 136.952C368.923 138.93 369.657 140.685 370.55 142.217C371.444 143.684 372.529 145.184 373.805 146.716C372.401 146.333 371.157 145.95 370.072 145.567C369.051 145.184 368.03 144.737 367.009 144.227C366.051 143.716 365.03 143.078 363.946 142.312C362.925 141.547 361.712 140.589 360.308 139.441C359.415 140.972 358.426 142.376 357.341 143.653C356.32 144.993 355.075 146.237 353.608 147.386C352.204 148.534 350.576 149.587 348.726 150.545C346.875 151.502 344.705 152.363 342.217 153.129C344.131 151.278 345.918 149.173 347.577 146.811C349.236 144.514 350.672 142.057 351.885 139.441C353.161 136.761 354.15 134.017 354.852 131.209C355.618 128.401 356.001 125.561 356.001 122.689C356.001 120.009 355.65 117.425 354.948 114.936C354.31 112.447 353.225 110.054 351.693 107.757C354.82 101.758 356.384 96.3979 356.384 91.6756C356.384 87.6553 355.331 84.0497 353.225 80.859C351.183 77.6045 348.247 74.6052 344.418 71.8612C345.056 71.6697 345.79 71.574 346.62 71.574C347.896 71.574 349.3 71.7335 350.832 72.0526C352.427 72.3079 354.15 72.595 356.001 72.9141C357.915 73.2332 359.989 73.5522 362.223 73.8713C364.456 74.1266 366.913 74.2542 369.593 74.2542C370.231 74.2542 370.838 74.2542 371.412 74.2542C372.05 74.2542 372.688 74.2223 373.326 74.1585C372.752 74.6052 372.21 75.1795 371.699 75.8815C371.252 76.5834 370.838 77.3492 370.455 78.1788C370.072 79.0084 369.753 79.8699 369.497 80.7633C369.306 81.6567 369.21 82.4863 369.21 83.2521L388.259 116.085L404.149 83.8264C403.383 81.5929 402.49 79.7103 401.469 78.1788C400.511 76.6472 399.235 75.2114 397.64 73.8713C398.086 73.9989 398.501 74.0628 398.884 74.0628C399.267 74.0628 399.682 74.0628 400.128 74.0628C402.298 74.0628 404.564 73.9989 406.925 73.8713C409.286 73.6799 411.647 73.4565 414.008 73.2013C416.369 72.8822 418.667 72.5631 420.9 72.244C423.134 71.8611 425.271 71.5102 427.313 71.1911C425.399 72.5312 423.836 73.9989 422.623 75.5943C421.474 77.1259 420.581 78.7531 419.943 80.4761C419.369 82.1991 418.954 84.0178 418.699 85.9323C418.507 87.7829 418.411 89.6973 418.411 91.6756C418.411 94.1005 418.826 96.6212 419.656 99.2376C420.485 101.854 421.698 104.694 423.293 107.757C422.145 109.799 421.092 112.352 420.134 115.415C419.241 118.478 418.794 121.541 418.794 124.604C418.794 127.922 419.369 131.017 420.517 133.889C421.73 136.761 423.453 138.898 425.686 140.302C424.346 141.004 423.006 141.834 421.666 142.791C420.326 143.684 419.081 144.642 417.933 145.663C416.784 146.748 415.763 147.832 414.87 148.917C413.976 150.002 413.306 151.023 412.859 151.98C412.54 151.023 411.966 149.97 411.136 148.822C410.371 147.673 409.413 146.556 408.265 145.471C407.116 144.386 405.872 143.397 404.532 142.504C403.192 141.547 401.851 140.813 400.511 140.302C401.532 139.409 402.33 138.228 402.904 136.761C403.543 135.293 403.989 133.666 404.245 131.879C404.564 130.092 404.755 128.178 404.819 126.135C404.946 124.093 405.01 122.051 405.01 120.009V101.918L386.44 137.431L384.813 137.143Z" fill="url(#paint2_linear_2050_701)" shape-rendering="crispEdges"/>
<path d="M532.489 96.5574C531.213 95.664 530.128 94.7706 529.235 93.8772C528.405 92.92 527.703 91.8989 527.129 90.8141C526.555 89.7292 526.076 88.5487 525.693 87.2724C525.31 85.9961 524.991 84.5922 524.736 83.0606C523.843 82.3587 522.407 81.9119 520.428 81.7205C518.45 81.5291 516.44 81.4333 514.398 81.4333C512.739 81.4333 511.303 81.4652 510.09 81.5291C508.878 81.5929 507.825 81.6248 506.932 81.6248C506.357 83.2201 505.974 85.9642 505.783 89.8569C505.592 93.6857 505.496 98.0889 505.496 103.066C505.496 105.747 505.496 108.491 505.496 111.299C505.56 114.106 505.592 116.882 505.592 119.626C505.655 122.37 505.687 125.051 505.687 127.667C505.751 130.22 505.783 132.613 505.783 134.846C507.697 135.293 509.261 135.708 510.473 136.091C511.686 136.41 512.866 136.697 514.015 136.952C515.164 137.143 516.472 137.335 517.94 137.526C519.407 137.654 521.354 137.782 523.779 137.909C523.906 137.399 523.97 136.314 523.97 134.655C524.034 132.932 524.066 130.953 524.066 128.72C524.066 126.231 524.034 124.157 523.97 122.498C523.97 120.839 523.906 119.18 523.779 117.52C522.949 117.52 522.247 117.457 521.673 117.329C521.162 117.138 520.524 116.946 519.758 116.755C519.056 116.563 518.099 116.372 516.887 116.18C515.738 115.989 514.175 115.829 512.196 115.702C512.452 115.255 512.771 114.681 513.154 113.979C513.536 113.213 513.919 112.415 514.302 111.586C514.685 110.756 515.004 109.99 515.259 109.288C515.579 108.523 515.802 107.884 515.929 107.374C518.354 107.884 520.716 108.267 523.013 108.523C525.374 108.778 527.608 108.906 529.713 108.906C531.883 108.906 533.861 108.778 535.648 108.523C537.435 108.204 538.935 107.693 540.147 106.991C539.956 107.502 539.605 108.235 539.094 109.193C538.647 110.086 538.169 111.075 537.658 112.16C537.148 113.181 536.701 114.202 536.318 115.223C535.935 116.244 535.744 117.138 535.744 117.903C535.935 120.584 536.095 123.168 536.223 125.657C536.35 128.146 536.478 130.411 536.605 132.453C536.797 134.431 536.956 136.091 537.084 137.431C537.212 138.771 537.371 139.632 537.563 140.015C534.563 140.717 531.724 141.802 529.043 143.27C526.363 144.801 523.236 147.067 519.663 150.066C516.855 148.343 513.856 146.875 510.665 145.663C507.474 144.45 504.315 143.397 501.188 142.504C498.125 141.547 495.158 140.717 492.286 140.015C489.478 139.313 487.021 138.611 484.916 137.909C485.937 137.654 486.798 137.048 487.5 136.091C488.266 135.07 488.872 133.825 489.319 132.357C489.829 130.89 490.212 129.262 490.467 127.476C490.723 125.625 490.85 123.774 490.85 121.924C490.85 119.052 490.531 116.308 489.893 113.692C489.319 111.075 488.489 109.097 487.404 107.757C488.425 106.736 489.255 105.396 489.893 103.737C490.595 102.014 491.138 100.195 491.52 98.2804C491.903 96.3021 492.159 94.292 492.286 92.2499C492.414 90.2078 492.478 88.2934 492.478 86.5066C492.478 85.0389 492.446 83.7626 492.382 82.6777C492.318 81.5929 492.254 80.7633 492.19 80.189C490.723 79.6784 489.191 78.6255 487.596 77.0301C486.064 75.4348 484.916 73.7118 484.15 71.8612C488.234 72.3079 492.095 72.6269 495.732 72.8184C499.433 72.946 502.911 73.0098 506.166 73.0098C513.249 73.0098 519.056 72.7865 523.587 72.3398C528.118 71.8931 531.628 71.6697 534.117 71.6697C534.627 71.6697 535.074 71.7016 535.457 71.7654C535.84 71.7654 536.191 71.7973 536.51 71.8612C536.254 72.4355 535.967 73.4246 535.648 74.8285C535.393 76.1686 535.106 77.7002 534.787 79.4232C534.468 81.0824 534.18 82.8692 533.925 84.7836C533.67 86.6342 533.415 88.3891 533.159 90.0483C532.968 91.6437 532.808 93.0476 532.681 94.2601C532.553 95.4725 532.489 96.2383 532.489 96.5574Z" fill="url(#paint3_linear_2050_701)" shape-rendering="crispEdges"/>
<path d="M636.574 148.439C632.937 147.162 629.331 145.758 625.758 144.227C622.248 142.759 618.77 141.004 615.324 138.962C614.494 139.792 613.76 140.494 613.122 141.068C612.484 141.642 611.814 142.153 611.112 142.6C610.41 142.983 609.644 143.302 608.815 143.557C608.049 143.876 607.124 144.163 606.039 144.418C606.677 143.653 607.124 142.727 607.379 141.642C607.634 140.558 607.762 139.441 607.762 138.292C607.762 136.442 607.507 134.655 606.996 132.932C606.549 131.145 606.135 129.645 605.752 128.433L603.454 121.158C601.604 123.583 599.753 126.263 597.903 129.199C596.116 132.134 594.552 134.942 593.212 137.622C592.127 136.091 590.66 133.921 588.809 131.113C587.022 128.305 585.012 125.274 582.779 122.019L581.247 126.997C580.864 128.273 580.545 129.55 580.29 130.826C580.098 132.102 580.003 133.41 580.003 134.75C580.003 136.729 580.258 138.675 580.768 140.589C581.279 142.504 582.109 144.291 583.257 145.95C581.981 145.503 580.896 145.056 580.003 144.61C579.173 144.163 578.375 143.653 577.61 143.078C576.908 142.504 576.174 141.898 575.408 141.26C574.706 140.558 573.876 139.76 572.919 138.866C570.239 141.419 567.591 143.206 564.974 144.227C562.358 145.312 559.422 145.886 556.168 145.95C557.38 145.758 558.657 144.961 559.997 143.557C561.337 142.217 562.645 140.462 563.921 138.292C565.198 136.059 566.41 133.538 567.559 130.73C568.771 127.922 569.824 124.955 570.718 121.828L573.781 111.107C571.547 108.746 569.122 106.736 566.506 105.077C563.889 103.354 561.528 102.492 559.422 102.492C559.295 102.492 559.135 102.492 558.944 102.492C558.752 102.492 558.369 102.524 557.795 102.588L557.699 102.301C560.443 100.897 562.996 100.195 565.357 100.195C566.953 100.195 568.58 100.514 570.239 101.152C571.898 101.726 573.813 102.62 575.982 103.832L581.151 86.1237C581.47 85.0389 581.694 84.0816 581.821 83.2521C581.949 82.4225 582.013 81.7524 582.013 81.2419C582.013 79.9018 581.598 78.9446 580.768 78.3702C580.003 77.7959 578.599 77.5087 576.557 77.5087C575.28 77.5087 573.908 77.6045 572.441 77.7959C570.973 77.9874 569.218 78.2745 567.176 78.6574C567.559 78.0831 568.484 77.413 569.952 76.6472C571.42 75.8815 573.174 75.1476 575.217 74.4456C577.322 73.7437 579.556 73.1694 581.917 72.7226C584.342 72.2121 586.671 71.9569 588.905 71.9569C590.564 71.9569 592.159 72.1483 593.691 72.5312C595.222 72.9141 596.371 73.5841 597.137 74.5414C598.286 74.4775 599.53 74.318 600.87 74.0628C602.21 73.8075 603.486 73.5203 604.699 73.2013C605.911 72.8184 606.996 72.4674 607.953 72.1483C608.911 71.7654 609.549 71.4783 609.868 71.2868C608.974 72.5631 608.304 74.0947 607.858 75.8815C607.475 77.6045 607.283 79.487 607.283 81.5291C607.283 84.1455 607.57 86.8895 608.145 89.7611C608.719 92.569 609.389 95.1854 610.155 97.6103C610.985 100.035 611.846 102.109 612.74 103.832C613.633 105.555 614.399 106.608 615.037 106.991C615.037 110.756 615.675 114.745 616.951 118.956C618.291 123.168 619.982 127.188 622.025 131.017C624.13 134.846 626.46 138.292 629.012 141.355C631.629 144.355 634.181 146.62 636.67 148.151L636.574 148.439ZM593.117 121.924C594.201 120.456 595.414 118.893 596.754 117.233C598.158 115.51 599.434 113.819 600.583 112.16L593.212 88.2296L585.65 112.926C586.926 114.266 588.203 115.766 589.479 117.425C590.819 119.084 592.032 120.584 593.117 121.924Z" fill="url(#paint4_linear_2050_701)" shape-rendering="crispEdges"/>
<path d="M683.14 137.143L665.048 105.364V120.009C665.048 123.966 665.176 127.284 665.431 129.964C665.687 132.645 666.101 134.974 666.676 136.952C667.25 138.93 667.984 140.685 668.877 142.217C669.771 143.684 670.856 145.184 672.132 146.716C670.728 146.333 669.484 145.95 668.399 145.567C667.378 145.184 666.357 144.737 665.336 144.227C664.378 143.716 663.357 143.078 662.273 142.312C661.252 141.547 660.039 140.589 658.635 139.441C657.742 140.972 656.753 142.376 655.668 143.653C654.647 144.993 653.402 146.237 651.935 147.386C650.531 148.534 648.903 149.587 647.053 150.545C645.202 151.502 643.032 152.363 640.544 153.129C642.458 151.278 644.245 149.173 645.904 146.811C647.563 144.514 648.999 142.057 650.212 139.441C651.488 136.761 652.477 134.017 653.179 131.209C653.945 128.401 654.328 125.561 654.328 122.689C654.328 120.009 653.977 117.425 653.275 114.936C652.637 112.447 651.552 110.054 650.02 107.757C653.147 101.758 654.711 96.3979 654.711 91.6756C654.711 87.6553 653.658 84.0497 651.552 80.859C649.51 77.6045 646.574 74.6052 642.745 71.8612C643.383 71.6697 644.117 71.574 644.947 71.574C646.223 71.574 647.627 71.7335 649.159 72.0526C650.754 72.3079 652.477 72.595 654.328 72.9141C656.242 73.2332 658.316 73.5522 660.55 73.8713C662.783 74.1266 665.24 74.2542 667.92 74.2542C668.558 74.2542 669.165 74.2542 669.739 74.2542C670.377 74.2542 671.015 74.2223 671.653 74.1585C671.079 74.6052 670.537 75.1795 670.026 75.8815C669.579 76.5834 669.165 77.3492 668.782 78.1788C668.399 79.0084 668.08 79.8699 667.824 80.7633C667.633 81.6567 667.537 82.4863 667.537 83.2521L686.586 116.085L702.476 83.8264C701.71 81.5929 700.817 79.7103 699.796 78.1788C698.838 76.6472 697.562 75.2114 695.967 73.8713C696.413 73.9989 696.828 74.0628 697.211 74.0628C697.594 74.0628 698.009 74.0628 698.455 74.0628C700.625 74.0628 702.891 73.9989 705.252 73.8713C707.613 73.6799 709.974 73.4565 712.335 73.2013C714.696 72.8822 716.994 72.5631 719.227 72.244C721.461 71.8611 723.598 71.5102 725.64 71.1911C723.726 72.5312 722.163 73.9989 720.95 75.5943C719.801 77.1259 718.908 78.7531 718.27 80.4761C717.695 82.1991 717.281 84.0178 717.025 85.9323C716.834 87.7829 716.738 89.6973 716.738 91.6756C716.738 94.1005 717.153 96.6212 717.983 99.2376C718.812 101.854 720.025 104.694 721.62 107.757C720.471 109.799 719.419 112.352 718.461 115.415C717.568 118.478 717.121 121.541 717.121 124.604C717.121 127.922 717.696 131.017 718.844 133.889C720.057 136.761 721.78 138.898 724.013 140.302C722.673 141.004 721.333 141.834 719.993 142.791C718.653 143.684 717.408 144.642 716.26 145.663C715.111 146.748 714.09 147.832 713.197 148.917C712.303 150.002 711.633 151.023 711.186 151.98C710.867 151.023 710.293 149.97 709.463 148.822C708.698 147.673 707.74 146.556 706.592 145.471C705.443 144.386 704.199 143.397 702.859 142.504C701.519 141.547 700.178 140.813 698.838 140.302C699.859 139.409 700.657 138.228 701.231 136.761C701.869 135.293 702.316 133.666 702.572 131.879C702.891 130.092 703.082 128.178 703.146 126.135C703.273 124.093 703.337 122.051 703.337 120.009V101.918L684.767 137.431L683.14 137.143Z" fill="url(#paint5_linear_2050_701)" shape-rendering="crispEdges"/>
<path d="M113.54 173.542C115.113 172.599 116.476 170.816 117.629 168.195C118.887 165.574 119.936 162.586 120.775 159.231C121.718 155.876 122.4 152.416 122.819 148.851C123.238 145.182 123.448 141.827 123.448 138.786C123.448 134.068 122.924 129.56 121.875 125.261C120.932 120.962 119.569 117.712 117.787 115.51C119.464 113.833 120.827 111.631 121.875 108.905C123.029 106.074 123.92 103.086 124.549 99.941C125.178 96.6908 125.597 93.3882 125.807 90.0332C126.017 86.6781 126.122 83.5328 126.122 80.5971C126.122 78.1857 126.069 76.0888 125.964 74.3064C125.86 72.5241 125.755 71.1611 125.65 70.2175C123.238 69.3787 120.722 67.6488 118.101 65.0277C115.585 62.4066 113.698 59.5757 112.439 56.5352C119.15 57.2692 125.493 57.7934 131.469 58.1079C137.55 58.3176 143.264 58.4224 148.611 58.4224C160.039 58.4224 169.265 58.0555 176.29 57.3216C183.315 56.5877 188.871 56.2207 192.96 56.2207C193.799 56.2207 194.533 56.2731 195.162 56.378C195.791 56.378 196.368 56.4304 196.892 56.5352C196.263 57.6885 195.581 59.7854 194.848 62.8259C194.218 65.8664 193.589 69.2215 192.96 72.891C192.331 76.4558 191.755 79.9681 191.23 83.428C190.811 86.783 190.496 89.2993 190.287 90.9768L189.186 91.4486C185.516 89.3517 182.843 86.9927 181.165 84.3716C179.593 81.7504 178.387 78.6051 177.548 74.9355C176.08 73.7822 174.246 73.0483 172.044 72.7338C169.842 72.4192 167.064 72.262 163.709 72.262C160.983 72.262 158.362 72.3144 155.845 72.4192C153.329 72.5241 151.337 72.5765 149.869 72.5765C149.03 76.6655 148.401 81.6456 147.982 87.5169C147.562 93.3882 147.248 99.6265 147.038 106.232C148.506 106.441 149.974 106.599 151.442 106.704C153.014 106.704 154.22 106.704 155.059 106.704C157.261 106.704 159.41 105.865 161.507 104.187C163.709 102.405 165.805 100.151 167.798 97.4247C168.322 98.6829 168.846 100.151 169.37 101.828C169.894 103.401 170.471 105.026 171.1 106.704C171.834 108.276 172.62 109.796 173.459 111.264C174.298 112.732 175.294 113.833 176.447 114.567C175.504 115.51 174.56 116.716 173.616 118.184C172.778 119.652 171.939 121.225 171.1 122.902C170.366 124.58 169.632 126.257 168.898 127.935C168.269 129.612 167.693 131.132 167.168 132.495C166.539 131.342 165.805 130.084 164.967 128.721C164.128 127.358 163.237 126.1 162.293 124.947C161.35 123.793 160.301 122.85 159.148 122.116C158.099 121.277 156.946 120.858 155.688 120.858C154.744 120.858 153.381 120.91 151.599 121.015C149.817 121.12 148.192 121.329 146.724 121.644V124.475C146.724 131.08 146.776 137.371 146.881 143.347C147.091 149.218 147.405 154.356 147.825 158.759L174.403 161.433C175.871 154.932 178.439 149.166 182.109 144.133C185.883 139.101 189.92 134.225 194.218 129.507L195.162 129.822C194.848 132.233 194.638 134.645 194.533 137.056C194.428 139.363 194.376 141.617 194.376 143.819C194.376 149.271 194.638 154.198 195.162 158.602C195.686 163.005 196.315 166.308 197.049 168.51C195.267 168.719 193.485 169.034 191.702 169.453C190.025 169.768 188.19 170.344 186.198 171.183C184.206 172.022 182.056 173.175 179.75 174.643C177.548 176.111 175.084 177.998 172.358 180.305C163.551 177.684 154.849 175.691 146.252 174.328C137.655 173.07 129.896 172.441 122.976 172.441C119.621 172.441 116.528 172.965 113.698 174.014L113.54 173.542Z" fill="url(#paint6_linear_2050_701)" shape-rendering="crispEdges"/>
<path d="M741.05 173.542C742.623 172.599 743.986 170.816 745.139 168.195C746.398 165.574 747.446 162.586 748.285 159.231C749.228 155.876 749.91 152.416 750.329 148.851C750.749 145.182 750.958 141.827 750.958 138.786C750.958 134.068 750.434 129.56 749.386 125.261C748.442 120.962 747.079 117.712 745.297 115.51C746.974 113.833 748.337 111.631 749.386 108.905C750.539 106.074 751.43 103.086 752.059 99.941C752.688 96.6908 753.108 93.3882 753.317 90.0332C753.527 86.6781 753.632 83.5328 753.632 80.5971C753.632 78.1857 753.579 76.0888 753.475 74.3064C753.37 72.5241 753.265 71.1611 753.16 70.2175C750.749 69.3787 748.232 67.6488 745.611 65.0277C743.095 62.4066 741.208 59.5757 739.95 56.5352C746.66 57.2692 753.003 57.7934 758.979 58.1079C765.06 58.3176 770.774 58.4224 776.121 58.4224C787.549 58.4224 796.775 58.0555 803.8 57.3216C810.825 56.5877 816.381 56.2207 820.47 56.2207C821.309 56.2207 822.043 56.2731 822.672 56.378C823.301 56.378 823.878 56.4304 824.402 56.5352C823.773 57.6885 823.092 59.7854 822.358 62.8259C821.729 65.8664 821.1 69.2215 820.47 72.891C819.841 76.4558 819.265 79.9681 818.741 83.428C818.321 86.783 818.007 89.2993 817.797 90.9768L816.696 91.4486C813.026 89.3517 810.353 86.9927 808.675 84.3716C807.103 81.7504 805.897 78.6051 805.058 74.9355C803.59 73.7822 801.756 73.0483 799.554 72.7338C797.352 72.4192 794.574 72.262 791.219 72.262C788.493 72.262 785.872 72.3144 783.355 72.4192C780.839 72.5241 778.847 72.5765 777.379 72.5765C776.54 76.6655 775.911 81.6456 775.492 87.5169C775.073 93.3882 774.758 99.6265 774.548 106.232C776.016 106.441 777.484 106.599 778.952 106.704C780.525 106.704 781.73 106.704 782.569 106.704C784.771 106.704 786.92 105.865 789.017 104.187C791.219 102.405 793.316 100.151 795.308 97.4247C795.832 98.6829 796.356 100.151 796.88 101.828C797.405 103.401 797.981 105.026 798.61 106.704C799.344 108.276 800.13 109.796 800.969 111.264C801.808 112.732 802.804 113.833 803.957 114.567C803.014 115.51 802.07 116.716 801.127 118.184C800.288 119.652 799.449 121.225 798.61 122.902C797.876 124.58 797.142 126.257 796.409 127.935C795.779 129.612 795.203 131.132 794.679 132.495C794.049 131.342 793.316 130.084 792.477 128.721C791.638 127.358 790.747 126.1 789.803 124.947C788.86 123.793 787.811 122.85 786.658 122.116C785.61 121.277 784.456 120.858 783.198 120.858C782.255 120.858 780.891 120.91 779.109 121.015C777.327 121.12 775.702 121.329 774.234 121.644V124.475C774.234 131.08 774.286 137.371 774.391 143.347C774.601 149.218 774.915 154.356 775.335 158.759L801.913 161.433C803.381 154.932 805.949 149.166 809.619 144.133C813.393 139.101 817.43 134.225 821.729 129.507L822.672 129.822C822.358 132.233 822.148 134.645 822.043 137.056C821.938 139.363 821.886 141.617 821.886 143.819C821.886 149.271 822.148 154.198 822.672 158.602C823.196 163.005 823.825 166.308 824.559 168.51C822.777 168.719 820.995 169.034 819.212 169.453C817.535 169.768 815.7 170.344 813.708 171.183C811.716 172.022 809.567 173.175 807.26 174.643C805.058 176.111 802.594 177.998 799.868 180.305C791.061 177.684 782.359 175.691 773.762 174.328C765.165 173.07 757.406 172.441 750.486 172.441C747.131 172.441 744.038 172.965 741.208 174.014L741.05 173.542Z" fill="url(#paint7_linear_2050_701)" shape-rendering="crispEdges"/>
<path d="M284.761 159.638C279.911 162.063 275.38 163.595 271.169 164.233C266.957 164.871 263.128 165.19 259.682 165.19C256.172 165.19 253.045 164.743 250.301 163.85C247.557 162.956 245.037 161.808 242.739 160.404C240.506 159.064 238.432 157.596 236.517 156.001C234.603 154.405 232.72 152.906 230.87 151.502C229.019 150.162 227.137 149.045 225.222 148.151C223.372 147.258 221.329 146.811 219.096 146.811C217.054 146.811 214.98 147.003 212.874 147.386C215.427 144.323 217.309 140.717 218.522 136.569C219.734 132.357 220.34 127.954 220.34 123.36C220.34 122.019 220.277 120.647 220.149 119.243C220.021 117.776 219.766 116.372 219.383 115.032C219.064 113.628 218.554 112.32 217.852 111.107C217.213 109.831 216.352 108.714 215.267 107.757C217.054 104.438 218.266 101.407 218.905 98.6633C219.606 95.9193 219.957 93.0795 219.957 90.144C219.957 87.1447 219.766 84.8474 219.383 83.2521C219.064 81.5929 218.522 80.2847 217.756 79.3275C216.99 78.3702 216.001 77.5726 214.788 76.9344C213.64 76.2324 212.204 75.3071 210.481 74.1585C211.693 74.2861 212.842 74.3818 213.927 74.4456C215.076 74.5095 216.192 74.5414 217.277 74.5414C219.83 74.5414 222.191 74.4137 224.361 74.1585C226.53 73.9032 228.572 73.6161 230.487 73.297C232.401 72.9779 234.252 72.6907 236.039 72.4355C237.826 72.1802 239.644 72.0526 241.495 72.0526C242.771 72.0526 244.143 72.1483 245.611 72.3398C244.016 72.3398 242.484 72.946 241.016 74.1585C239.612 75.371 238.336 76.9344 237.187 78.8489C236.103 80.6995 235.209 82.7734 234.507 85.0708C233.869 87.3043 233.55 89.5059 233.55 91.6756V115.893C233.55 117.999 233.614 120.009 233.741 121.924C233.933 123.774 234.156 125.465 234.411 126.997C234.731 128.465 235.081 129.741 235.464 130.826C235.847 131.911 236.262 132.676 236.709 133.123C235.624 133.57 234.348 134.176 232.88 134.942C231.476 135.644 230.391 136.729 229.625 138.196C230.008 139.473 231.125 141.068 232.976 142.983C234.89 144.833 237.092 146.684 239.58 148.534C242.069 150.449 244.622 152.172 247.238 153.703C249.918 155.235 252.184 156.288 254.034 156.862C253.205 155.777 252.375 154.501 251.546 153.033C250.78 151.629 250.142 150.385 249.631 149.3C252.567 151.087 255.279 152.587 257.768 153.799C260.256 155.012 262.586 156.001 264.755 156.766C266.989 157.532 269.127 158.075 271.169 158.394C273.211 158.713 275.285 158.872 277.391 158.872C278.475 158.872 279.592 158.809 280.741 158.681C281.89 158.617 283.102 158.521 284.378 158.394L284.761 159.638Z" stroke="url(#paint8_linear_2050_701)" stroke-width="4.685" shape-rendering="crispEdges" mask="url(#path-1-outside-1_2050_701)"/>
<path d="M274.154 143.078C275.111 142.504 275.941 141.419 276.643 139.824C277.409 138.228 278.047 136.41 278.557 134.368C279.131 132.325 279.546 130.22 279.802 128.05C280.057 125.816 280.184 123.774 280.184 121.924C280.184 119.052 279.865 116.308 279.227 113.692C278.653 111.075 277.823 109.097 276.738 107.757C277.759 106.736 278.589 105.396 279.227 103.737C279.929 102.014 280.472 100.195 280.855 98.2804C281.237 96.3021 281.493 94.292 281.62 92.2499C281.748 90.2078 281.812 88.2934 281.812 86.5066C281.812 85.0389 281.78 83.7626 281.716 82.6777C281.652 81.5929 281.588 80.7633 281.525 80.189C280.057 79.6784 278.525 78.6255 276.93 77.0301C275.398 75.4348 274.25 73.7118 273.484 71.8612C277.568 72.3079 281.429 72.6269 285.066 72.8184C288.768 72.946 292.245 73.0098 295.5 73.0098C302.456 73.0098 308.071 72.7865 312.347 72.3398C316.623 71.8931 320.005 71.6697 322.494 71.6697C323.004 71.6697 323.451 71.7016 323.834 71.7654C324.217 71.7654 324.567 71.7973 324.887 71.8612C324.504 72.5631 324.089 73.8394 323.642 75.69C323.259 77.5407 322.876 79.5827 322.494 81.8162C322.111 83.9859 321.76 86.1237 321.441 88.2296C321.185 90.2717 320.994 91.8032 320.866 92.8242L320.196 93.1114C317.963 91.8351 316.335 90.3993 315.314 88.8039C314.357 87.2086 313.623 85.2941 313.113 83.0606C312.219 82.3587 311.103 81.9119 309.763 81.7205C308.422 81.5291 306.731 81.4333 304.689 81.4333C303.03 81.4333 301.435 81.4652 299.903 81.5291C298.372 81.5929 297.159 81.6248 296.266 81.6248C295.755 84.1135 295.372 87.1447 295.117 90.7184C294.862 94.292 294.67 98.0889 294.543 102.109C295.436 102.237 296.33 102.333 297.223 102.396C298.18 102.396 298.914 102.396 299.425 102.396C300.765 102.396 302.073 101.886 303.349 100.865C304.689 99.78 305.966 98.408 307.178 96.7488C307.497 97.5146 307.816 98.408 308.135 99.4291C308.454 100.386 308.805 101.375 309.188 102.396C309.635 103.354 310.113 104.279 310.624 105.172C311.135 106.066 311.741 106.736 312.443 107.183C311.868 107.757 311.294 108.491 310.72 109.384C310.209 110.278 309.699 111.235 309.188 112.256C308.741 113.277 308.295 114.298 307.848 115.319C307.465 116.34 307.114 117.265 306.795 118.095C306.412 117.393 305.966 116.627 305.455 115.797C304.945 114.968 304.402 114.202 303.828 113.5C303.253 112.798 302.615 112.224 301.913 111.777C301.275 111.267 300.573 111.011 299.807 111.011C299.233 111.011 298.404 111.043 297.319 111.107C296.234 111.171 295.245 111.299 294.351 111.49V113.213C294.351 117.233 294.383 121.062 294.447 124.7C294.575 128.273 294.766 131.4 295.021 134.08L311.198 135.708C312.092 131.751 313.655 128.241 315.889 125.178C318.186 122.115 320.643 119.148 323.259 116.276L323.834 116.468C323.642 117.935 323.515 119.403 323.451 120.871C323.387 122.275 323.355 123.647 323.355 124.987C323.355 128.305 323.515 131.304 323.834 133.985C324.153 136.665 324.536 138.675 324.982 140.015C323.897 140.143 322.813 140.334 321.728 140.589C320.707 140.781 319.59 141.132 318.377 141.642C317.165 142.153 315.857 142.855 314.453 143.748C313.113 144.642 311.613 145.79 309.954 147.194C304.594 145.599 299.297 144.386 294.064 143.557C288.831 142.791 284.109 142.408 279.897 142.408C277.855 142.408 275.973 142.727 274.25 143.365L274.154 143.078Z" stroke="url(#paint9_linear_2050_701)" stroke-width="4.685" shape-rendering="crispEdges" mask="url(#path-1-outside-1_2050_701)"/>
<path d="M384.813 137.143L366.722 105.364V120.009C366.722 123.966 366.849 127.284 367.104 129.964C367.36 132.645 367.774 134.974 368.349 136.952C368.923 138.93 369.657 140.685 370.55 142.217C371.444 143.684 372.529 145.184 373.805 146.716C372.401 146.333 371.157 145.95 370.072 145.567C369.051 145.184 368.03 144.737 367.009 144.227C366.051 143.716 365.03 143.078 363.946 142.312C362.925 141.547 361.712 140.589 360.308 139.441C359.415 140.972 358.426 142.376 357.341 143.653C356.32 144.993 355.075 146.237 353.608 147.386C352.204 148.534 350.576 149.587 348.726 150.545C346.875 151.502 344.705 152.363 342.217 153.129C344.131 151.278 345.918 149.173 347.577 146.811C349.236 144.514 350.672 142.057 351.885 139.441C353.161 136.761 354.15 134.017 354.852 131.209C355.618 128.401 356.001 125.561 356.001 122.689C356.001 120.009 355.65 117.425 354.948 114.936C354.31 112.447 353.225 110.054 351.693 107.757C354.82 101.758 356.384 96.3979 356.384 91.6756C356.384 87.6553 355.331 84.0497 353.225 80.859C351.183 77.6045 348.247 74.6052 344.418 71.8612C345.056 71.6697 345.79 71.574 346.62 71.574C347.896 71.574 349.3 71.7335 350.832 72.0526C352.427 72.3079 354.15 72.595 356.001 72.9141C357.915 73.2332 359.989 73.5522 362.223 73.8713C364.456 74.1266 366.913 74.2542 369.593 74.2542C370.231 74.2542 370.838 74.2542 371.412 74.2542C372.05 74.2542 372.688 74.2223 373.326 74.1585C372.752 74.6052 372.21 75.1795 371.699 75.8815C371.252 76.5834 370.838 77.3492 370.455 78.1788C370.072 79.0084 369.753 79.8699 369.497 80.7633C369.306 81.6567 369.21 82.4863 369.21 83.2521L388.259 116.085L404.149 83.8264C403.383 81.5929 402.49 79.7103 401.469 78.1788C400.511 76.6472 399.235 75.2114 397.64 73.8713C398.086 73.9989 398.501 74.0628 398.884 74.0628C399.267 74.0628 399.682 74.0628 400.128 74.0628C402.298 74.0628 404.564 73.9989 406.925 73.8713C409.286 73.6799 411.647 73.4565 414.008 73.2013C416.369 72.8822 418.667 72.5631 420.9 72.244C423.134 71.8611 425.271 71.5102 427.313 71.1911C425.399 72.5312 423.836 73.9989 422.623 75.5943C421.474 77.1259 420.581 78.7531 419.943 80.4761C419.369 82.1991 418.954 84.0178 418.699 85.9323C418.507 87.7829 418.411 89.6973 418.411 91.6756C418.411 94.1005 418.826 96.6212 419.656 99.2376C420.485 101.854 421.698 104.694 423.293 107.757C422.145 109.799 421.092 112.352 420.134 115.415C419.241 118.478 418.794 121.541 418.794 124.604C418.794 127.922 419.369 131.017 420.517 133.889C421.73 136.761 423.453 138.898 425.686 140.302C424.346 141.004 423.006 141.834 421.666 142.791C420.326 143.684 419.081 144.642 417.933 145.663C416.784 146.748 415.763 147.832 414.87 148.917C413.976 150.002 413.306 151.023 412.859 151.98C412.54 151.023 411.966 149.97 411.136 148.822C410.371 147.673 409.413 146.556 408.265 145.471C407.116 144.386 405.872 143.397 404.532 142.504C403.192 141.547 401.851 140.813 400.511 140.302C401.532 139.409 402.33 138.228 402.904 136.761C403.543 135.293 403.989 133.666 404.245 131.879C404.564 130.092 404.755 128.178 404.819 126.135C404.946 124.093 405.01 122.051 405.01 120.009V101.918L386.44 137.431L384.813 137.143Z" stroke="url(#paint10_linear_2050_701)" stroke-width="4.685" shape-rendering="crispEdges" mask="url(#path-1-outside-1_2050_701)"/>
<path d="M532.489 96.5574C531.213 95.664 530.128 94.7706 529.235 93.8772C528.405 92.92 527.703 91.8989 527.129 90.8141C526.555 89.7292 526.076 88.5487 525.693 87.2724C525.31 85.9961 524.991 84.5922 524.736 83.0606C523.843 82.3587 522.407 81.9119 520.428 81.7205C518.45 81.5291 516.44 81.4333 514.398 81.4333C512.739 81.4333 511.303 81.4652 510.09 81.5291C508.878 81.5929 507.825 81.6248 506.932 81.6248C506.357 83.2201 505.974 85.9642 505.783 89.8569C505.592 93.6857 505.496 98.0889 505.496 103.066C505.496 105.747 505.496 108.491 505.496 111.299C505.56 114.106 505.592 116.882 505.592 119.626C505.655 122.37 505.687 125.051 505.687 127.667C505.751 130.22 505.783 132.613 505.783 134.846C507.697 135.293 509.261 135.708 510.473 136.091C511.686 136.41 512.866 136.697 514.015 136.952C515.164 137.143 516.472 137.335 517.94 137.526C519.407 137.654 521.354 137.782 523.779 137.909C523.906 137.399 523.97 136.314 523.97 134.655C524.034 132.932 524.066 130.953 524.066 128.72C524.066 126.231 524.034 124.157 523.97 122.498C523.97 120.839 523.906 119.18 523.779 117.52C522.949 117.52 522.247 117.457 521.673 117.329C521.162 117.138 520.524 116.946 519.758 116.755C519.056 116.563 518.099 116.372 516.887 116.18C515.738 115.989 514.175 115.829 512.196 115.702C512.452 115.255 512.771 114.681 513.154 113.979C513.536 113.213 513.919 112.415 514.302 111.586C514.685 110.756 515.004 109.99 515.259 109.288C515.579 108.523 515.802 107.884 515.929 107.374C518.354 107.884 520.716 108.267 523.013 108.523C525.374 108.778 527.608 108.906 529.713 108.906C531.883 108.906 533.861 108.778 535.648 108.523C537.435 108.204 538.935 107.693 540.147 106.991C539.956 107.502 539.605 108.235 539.094 109.193C538.647 110.086 538.169 111.075 537.658 112.16C537.148 113.181 536.701 114.202 536.318 115.223C535.935 116.244 535.744 117.138 535.744 117.903C535.935 120.584 536.095 123.168 536.223 125.657C536.35 128.146 536.478 130.411 536.605 132.453C536.797 134.431 536.956 136.091 537.084 137.431C537.212 138.771 537.371 139.632 537.563 140.015C534.563 140.717 531.724 141.802 529.043 143.27C526.363 144.801 523.236 147.067 519.663 150.066C516.855 148.343 513.856 146.875 510.665 145.663C507.474 144.45 504.315 143.397 501.188 142.504C498.125 141.547 495.158 140.717 492.286 140.015C489.478 139.313 487.021 138.611 484.916 137.909C485.937 137.654 486.798 137.048 487.5 136.091C488.266 135.07 488.872 133.825 489.319 132.357C489.829 130.89 490.212 129.262 490.467 127.476C490.723 125.625 490.85 123.774 490.85 121.924C490.85 119.052 490.531 116.308 489.893 113.692C489.319 111.075 488.489 109.097 487.404 107.757C488.425 106.736 489.255 105.396 489.893 103.737C490.595 102.014 491.138 100.195 491.52 98.2804C491.903 96.3021 492.159 94.292 492.286 92.2499C492.414 90.2078 492.478 88.2934 492.478 86.5066C492.478 85.0389 492.446 83.7626 492.382 82.6777C492.318 81.5929 492.254 80.7633 492.19 80.189C490.723 79.6784 489.191 78.6255 487.596 77.0301C486.064 75.4348 484.916 73.7118 484.15 71.8612C488.234 72.3079 492.095 72.6269 495.732 72.8184C499.433 72.946 502.911 73.0098 506.166 73.0098C513.249 73.0098 519.056 72.7865 523.587 72.3398C528.118 71.8931 531.628 71.6697 534.117 71.6697C534.627 71.6697 535.074 71.7016 535.457 71.7654C535.84 71.7654 536.191 71.7973 536.51 71.8612C536.254 72.4355 535.967 73.4246 535.648 74.8285C535.393 76.1686 535.106 77.7002 534.787 79.4232C534.468 81.0824 534.18 82.8692 533.925 84.7836C533.67 86.6342 533.415 88.3891 533.159 90.0483C532.968 91.6437 532.808 93.0476 532.681 94.2601C532.553 95.4725 532.489 96.2383 532.489 96.5574Z" stroke="url(#paint11_linear_2050_701)" stroke-width="4.685" shape-rendering="crispEdges" mask="url(#path-1-outside-1_2050_701)"/>
<path d="M636.574 148.439C632.937 147.162 629.331 145.758 625.758 144.227C622.248 142.759 618.77 141.004 615.324 138.962C614.494 139.792 613.76 140.494 613.122 141.068C612.484 141.642 611.814 142.153 611.112 142.6C610.41 142.983 609.644 143.302 608.815 143.557C608.049 143.876 607.124 144.163 606.039 144.418C606.677 143.653 607.124 142.727 607.379 141.642C607.634 140.558 607.762 139.441 607.762 138.292C607.762 136.442 607.507 134.655 606.996 132.932C606.549 131.145 606.135 129.645 605.752 128.433L603.454 121.158C601.604 123.583 599.753 126.263 597.903 129.199C596.116 132.134 594.552 134.942 593.212 137.622C592.127 136.091 590.66 133.921 588.809 131.113C587.022 128.305 585.012 125.274 582.779 122.019L581.247 126.997C580.864 128.273 580.545 129.55 580.29 130.826C580.098 132.102 580.003 133.41 580.003 134.75C580.003 136.729 580.258 138.675 580.768 140.589C581.279 142.504 582.109 144.291 583.257 145.95C581.981 145.503 580.896 145.056 580.003 144.61C579.173 144.163 578.375 143.653 577.61 143.078C576.908 142.504 576.174 141.898 575.408 141.26C574.706 140.558 573.876 139.76 572.919 138.866C570.239 141.419 567.591 143.206 564.974 144.227C562.358 145.312 559.422 145.886 556.168 145.95C557.38 145.758 558.657 144.961 559.997 143.557C561.337 142.217 562.645 140.462 563.921 138.292C565.198 136.059 566.41 133.538 567.559 130.73C568.771 127.922 569.824 124.955 570.718 121.828L573.781 111.107C571.547 108.746 569.122 106.736 566.506 105.077C563.889 103.354 561.528 102.492 559.422 102.492C559.295 102.492 559.135 102.492 558.944 102.492C558.752 102.492 558.369 102.524 557.795 102.588L557.699 102.301C560.443 100.897 562.996 100.195 565.357 100.195C566.953 100.195 568.58 100.514 570.239 101.152C571.898 101.726 573.813 102.62 575.982 103.832L581.151 86.1237C581.47 85.0389 581.694 84.0816 581.821 83.2521C581.949 82.4225 582.013 81.7524 582.013 81.2419C582.013 79.9018 581.598 78.9446 580.768 78.3702C580.003 77.7959 578.599 77.5087 576.557 77.5087C575.28 77.5087 573.908 77.6045 572.441 77.7959C570.973 77.9874 569.218 78.2745 567.176 78.6574C567.559 78.0831 568.484 77.413 569.952 76.6472C571.42 75.8815 573.174 75.1476 575.217 74.4456C577.322 73.7437 579.556 73.1694 581.917 72.7226C584.342 72.2121 586.671 71.9569 588.905 71.9569C590.564 71.9569 592.159 72.1483 593.691 72.5312C595.222 72.9141 596.371 73.5841 597.137 74.5414C598.286 74.4775 599.53 74.318 600.87 74.0628C602.21 73.8075 603.486 73.5203 604.699 73.2013C605.911 72.8184 606.996 72.4674 607.953 72.1483C608.911 71.7654 609.549 71.4783 609.868 71.2868C608.974 72.5631 608.304 74.0947 607.858 75.8815C607.475 77.6045 607.283 79.487 607.283 81.5291C607.283 84.1455 607.57 86.8895 608.145 89.7611C608.719 92.569 609.389 95.1854 610.155 97.6103C610.985 100.035 611.846 102.109 612.74 103.832C613.633 105.555 614.399 106.608 615.037 106.991C615.037 110.756 615.675 114.745 616.951 118.956C618.291 123.168 619.982 127.188 622.025 131.017C624.13 134.846 626.46 138.292 629.012 141.355C631.629 144.355 634.181 146.62 636.67 148.151L636.574 148.439ZM593.117 121.924C594.201 120.456 595.414 118.893 596.754 117.233C598.158 115.51 599.434 113.819 600.583 112.16L593.212 88.2296L585.65 112.926C586.926 114.266 588.203 115.766 589.479 117.425C590.819 119.084 592.032 120.584 593.117 121.924Z" stroke="url(#paint12_linear_2050_701)" stroke-width="4.685" shape-rendering="crispEdges" mask="url(#path-1-outside-1_2050_701)"/>
<path d="M683.14 137.143L665.048 105.364V120.009C665.048 123.966 665.176 127.284 665.431 129.964C665.687 132.645 666.101 134.974 666.676 136.952C667.25 138.93 667.984 140.685 668.877 142.217C669.771 143.684 670.856 145.184 672.132 146.716C670.728 146.333 669.484 145.95 668.399 145.567C667.378 145.184 666.357 144.737 665.336 144.227C664.378 143.716 663.357 143.078 662.273 142.312C661.252 141.547 660.039 140.589 658.635 139.441C657.742 140.972 656.753 142.376 655.668 143.653C654.647 144.993 653.402 146.237 651.935 147.386C650.531 148.534 648.903 149.587 647.053 150.545C645.202 151.502 643.032 152.363 640.544 153.129C642.458 151.278 644.245 149.173 645.904 146.811C647.563 144.514 648.999 142.057 650.212 139.441C651.488 136.761 652.477 134.017 653.179 131.209C653.945 128.401 654.328 125.561 654.328 122.689C654.328 120.009 653.977 117.425 653.275 114.936C652.637 112.447 651.552 110.054 650.02 107.757C653.147 101.758 654.711 96.3979 654.711 91.6756C654.711 87.6553 653.658 84.0497 651.552 80.859C649.51 77.6045 646.574 74.6052 642.745 71.8612C643.383 71.6697 644.117 71.574 644.947 71.574C646.223 71.574 647.627 71.7335 649.159 72.0526C650.754 72.3079 652.477 72.595 654.328 72.9141C656.242 73.2332 658.316 73.5522 660.55 73.8713C662.783 74.1266 665.24 74.2542 667.92 74.2542C668.558 74.2542 669.165 74.2542 669.739 74.2542C670.377 74.2542 671.015 74.2223 671.653 74.1585C671.079 74.6052 670.537 75.1795 670.026 75.8815C669.579 76.5834 669.165 77.3492 668.782 78.1788C668.399 79.0084 668.08 79.8699 667.824 80.7633C667.633 81.6567 667.537 82.4863 667.537 83.2521L686.586 116.085L702.476 83.8264C701.71 81.5929 700.817 79.7103 699.796 78.1788C698.838 76.6472 697.562 75.2114 695.967 73.8713C696.413 73.9989 696.828 74.0628 697.211 74.0628C697.594 74.0628 698.009 74.0628 698.455 74.0628C700.625 74.0628 702.891 73.9989 705.252 73.8713C707.613 73.6799 709.974 73.4565 712.335 73.2013C714.696 72.8822 716.994 72.5631 719.227 72.244C721.461 71.8611 723.598 71.5102 725.64 71.1911C723.726 72.5312 722.163 73.9989 720.95 75.5943C719.801 77.1259 718.908 78.7531 718.27 80.4761C717.695 82.1991 717.281 84.0178 717.025 85.9323C716.834 87.7829 716.738 89.6973 716.738 91.6756C716.738 94.1005 717.153 96.6212 717.983 99.2376C718.812 101.854 720.025 104.694 721.62 107.757C720.471 109.799 719.419 112.352 718.461 115.415C717.568 118.478 717.121 121.541 717.121 124.604C717.121 127.922 717.696 131.017 718.844 133.889C720.057 136.761 721.78 138.898 724.013 140.302C722.673 141.004 721.333 141.834 719.993 142.791C718.653 143.684 717.408 144.642 716.26 145.663C715.111 146.748 714.09 147.832 713.197 148.917C712.303 150.002 711.633 151.023 711.186 151.98C710.867 151.023 710.293 149.97 709.463 148.822C708.698 147.673 707.74 146.556 706.592 145.471C705.443 144.386 704.199 143.397 702.859 142.504C701.519 141.547 700.178 140.813 698.838 140.302C699.859 139.409 700.657 138.228 701.231 136.761C701.869 135.293 702.316 133.666 702.572 131.879C702.891 130.092 703.082 128.178 703.146 126.135C703.273 124.093 703.337 122.051 703.337 120.009V101.918L684.767 137.431L683.14 137.143Z" stroke="url(#paint13_linear_2050_701)" stroke-width="4.685" shape-rendering="crispEdges" mask="url(#path-1-outside-1_2050_701)"/>
<path d="M113.54 173.542C115.113 172.599 116.476 170.816 117.629 168.195C118.887 165.574 119.936 162.586 120.775 159.231C121.718 155.876 122.4 152.416 122.819 148.851C123.238 145.182 123.448 141.827 123.448 138.786C123.448 134.068 122.924 129.56 121.875 125.261C120.932 120.962 119.569 117.712 117.787 115.51C119.464 113.833 120.827 111.631 121.875 108.905C123.029 106.074 123.92 103.086 124.549 99.941C125.178 96.6908 125.597 93.3882 125.807 90.0332C126.017 86.6781 126.122 83.5328 126.122 80.5971C126.122 78.1857 126.069 76.0888 125.964 74.3064C125.86 72.5241 125.755 71.1611 125.65 70.2175C123.238 69.3787 120.722 67.6488 118.101 65.0277C115.585 62.4066 113.698 59.5757 112.439 56.5352C119.15 57.2692 125.493 57.7934 131.469 58.1079C137.55 58.3176 143.264 58.4224 148.611 58.4224C160.039 58.4224 169.265 58.0555 176.29 57.3216C183.315 56.5877 188.871 56.2207 192.96 56.2207C193.799 56.2207 194.533 56.2731 195.162 56.378C195.791 56.378 196.368 56.4304 196.892 56.5352C196.263 57.6885 195.581 59.7854 194.848 62.8259C194.218 65.8664 193.589 69.2215 192.96 72.891C192.331 76.4558 191.755 79.9681 191.23 83.428C190.811 86.783 190.496 89.2993 190.287 90.9768L189.186 91.4486C185.516 89.3517 182.843 86.9927 181.165 84.3716C179.593 81.7504 178.387 78.6051 177.548 74.9355C176.08 73.7822 174.246 73.0483 172.044 72.7338C169.842 72.4192 167.064 72.262 163.709 72.262C160.983 72.262 158.362 72.3144 155.845 72.4192C153.329 72.5241 151.337 72.5765 149.869 72.5765C149.03 76.6655 148.401 81.6456 147.982 87.5169C147.562 93.3882 147.248 99.6265 147.038 106.232C148.506 106.441 149.974 106.599 151.442 106.704C153.014 106.704 154.22 106.704 155.059 106.704C157.261 106.704 159.41 105.865 161.507 104.187C163.709 102.405 165.805 100.151 167.798 97.4247C168.322 98.6829 168.846 100.151 169.37 101.828C169.894 103.401 170.471 105.026 171.1 106.704C171.834 108.276 172.62 109.796 173.459 111.264C174.298 112.732 175.294 113.833 176.447 114.567C175.504 115.51 174.56 116.716 173.616 118.184C172.778 119.652 171.939 121.225 171.1 122.902C170.366 124.58 169.632 126.257 168.898 127.935C168.269 129.612 167.693 131.132 167.168 132.495C166.539 131.342 165.805 130.084 164.967 128.721C164.128 127.358 163.237 126.1 162.293 124.947C161.35 123.793 160.301 122.85 159.148 122.116C158.099 121.277 156.946 120.858 155.688 120.858C154.744 120.858 153.381 120.91 151.599 121.015C149.817 121.12 148.192 121.329 146.724 121.644V124.475C146.724 131.08 146.776 137.371 146.881 143.347C147.091 149.218 147.405 154.356 147.825 158.759L174.403 161.433C175.871 154.932 178.439 149.166 182.109 144.133C185.883 139.101 189.92 134.225 194.218 129.507L195.162 129.822C194.848 132.233 194.638 134.645 194.533 137.056C194.428 139.363 194.376 141.617 194.376 143.819C194.376 149.271 194.638 154.198 195.162 158.602C195.686 163.005 196.315 166.308 197.049 168.51C195.267 168.719 193.485 169.034 191.702 169.453C190.025 169.768 188.19 170.344 186.198 171.183C184.206 172.022 182.056 173.175 179.75 174.643C177.548 176.111 175.084 177.998 172.358 180.305C163.551 177.684 154.849 175.691 146.252 174.328C137.655 173.07 129.896 172.441 122.976 172.441C119.621 172.441 116.528 172.965 113.698 174.014L113.54 173.542Z" stroke="url(#paint14_linear_2050_701)" stroke-width="4.685" shape-rendering="crispEdges" mask="url(#path-1-outside-1_2050_701)"/>
<path d="M741.05 173.542C742.623 172.599 743.986 170.816 745.139 168.195C746.398 165.574 747.446 162.586 748.285 159.231C749.228 155.876 749.91 152.416 750.329 148.851C750.749 145.182 750.958 141.827 750.958 138.786C750.958 134.068 750.434 129.56 749.386 125.261C748.442 120.962 747.079 117.712 745.297 115.51C746.974 113.833 748.337 111.631 749.386 108.905C750.539 106.074 751.43 103.086 752.059 99.941C752.688 96.6908 753.108 93.3882 753.317 90.0332C753.527 86.6781 753.632 83.5328 753.632 80.5971C753.632 78.1857 753.579 76.0888 753.475 74.3064C753.37 72.5241 753.265 71.1611 753.16 70.2175C750.749 69.3787 748.232 67.6488 745.611 65.0277C743.095 62.4066 741.208 59.5757 739.95 56.5352C746.66 57.2692 753.003 57.7934 758.979 58.1079C765.06 58.3176 770.774 58.4224 776.121 58.4224C787.549 58.4224 796.775 58.0555 803.8 57.3216C810.825 56.5877 816.381 56.2207 820.47 56.2207C821.309 56.2207 822.043 56.2731 822.672 56.378C823.301 56.378 823.878 56.4304 824.402 56.5352C823.773 57.6885 823.092 59.7854 822.358 62.8259C821.729 65.8664 821.1 69.2215 820.47 72.891C819.841 76.4558 819.265 79.9681 818.741 83.428C818.321 86.783 818.007 89.2993 817.797 90.9768L816.696 91.4486C813.026 89.3517 810.353 86.9927 808.675 84.3716C807.103 81.7504 805.897 78.6051 805.058 74.9355C803.59 73.7822 801.756 73.0483 799.554 72.7338C797.352 72.4192 794.574 72.262 791.219 72.262C788.493 72.262 785.872 72.3144 783.355 72.4192C780.839 72.5241 778.847 72.5765 777.379 72.5765C776.54 76.6655 775.911 81.6456 775.492 87.5169C775.073 93.3882 774.758 99.6265 774.548 106.232C776.016 106.441 777.484 106.599 778.952 106.704C780.525 106.704 781.73 106.704 782.569 106.704C784.771 106.704 786.92 105.865 789.017 104.187C791.219 102.405 793.316 100.151 795.308 97.4247C795.832 98.6829 796.356 100.151 796.88 101.828C797.405 103.401 797.981 105.026 798.61 106.704C799.344 108.276 800.13 109.796 800.969 111.264C801.808 112.732 802.804 113.833 803.957 114.567C803.014 115.51 802.07 116.716 801.127 118.184C800.288 119.652 799.449 121.225 798.61 122.902C797.876 124.58 797.142 126.257 796.409 127.935C795.779 129.612 795.203 131.132 794.679 132.495C794.049 131.342 793.316 130.084 792.477 128.721C791.638 127.358 790.747 126.1 789.803 124.947C788.86 123.793 787.811 122.85 786.658 122.116C785.61 121.277 784.456 120.858 783.198 120.858C782.255 120.858 780.891 120.91 779.109 121.015C777.327 121.12 775.702 121.329 774.234 121.644V124.475C774.234 131.08 774.286 137.371 774.391 143.347C774.601 149.218 774.915 154.356 775.335 158.759L801.913 161.433C803.381 154.932 805.949 149.166 809.619 144.133C813.393 139.101 817.43 134.225 821.729 129.507L822.672 129.822C822.358 132.233 822.148 134.645 822.043 137.056C821.938 139.363 821.886 141.617 821.886 143.819C821.886 149.271 822.148 154.198 822.672 158.602C823.196 163.005 823.825 166.308 824.559 168.51C822.777 168.719 820.995 169.034 819.212 169.453C817.535 169.768 815.7 170.344 813.708 171.183C811.716 172.022 809.567 173.175 807.26 174.643C805.058 176.111 802.594 177.998 799.868 180.305C791.061 177.684 782.359 175.691 773.762 174.328C765.165 173.07 757.406 172.441 750.486 172.441C747.131 172.441 744.038 172.965 741.208 174.014L741.05 173.542Z" stroke="url(#paint15_linear_2050_701)" stroke-width="4.685" shape-rendering="crispEdges" mask="url(#path-1-outside-1_2050_701)"/>
</g>
<defs>
<filter id="filter0_d_2050_701" x="87.6802" y="46.7498" width="766.07" height="175.985" filterUnits="userSpaceOnUse" color-interpolation-filters="sRGB">
<feFlood flood-opacity="0" result="BackgroundImageFix"/>
<feColorMatrix in="SourceAlpha" type="matrix" values="0 0 0 0 0 0 0 0 0 0 0 0 0 0 0 0 0 0 127 0" result="hardAlpha"/>
<feOffset dx="2.3425" dy="16.3975"/>
<feGaussianBlur stdDeviation="11.7125"/>
<feComposite in2="hardAlpha" operator="out"/>
<feColorMatrix type="matrix" values="0 0 0 0 0.0416667 0 0 0 0 0.0287558 0 0 0 0 0 0 0 0 0.5 0"/>
<feBlend mode="normal" in2="BackgroundImageFix" result="effect1_dropShadow_2050_701"/>
<feBlend mode="normal" in="SourceGraphic" in2="effect1_dropShadow_2050_701" result="shape"/>
</filter>
<linearGradient id="paint0_linear_2050_701" x1="105.97" y1="126.747" x2="160.824" y2="312.395" gradientUnits="userSpaceOnUse">
<stop stop-color="#D6AA48"/>
<stop offset="0.495" stop-color="#FFE9B1"/>
<stop offset="1" stop-color="#D6AA48"/>
</linearGradient>
<linearGradient id="paint1_linear_2050_701" x1="105.97" y1="126.747" x2="160.824" y2="312.395" gradientUnits="userSpaceOnUse">
<stop stop-color="#D6AA48"/>
<stop offset="0.495" stop-color="#FFE9B1"/>
<stop offset="1" stop-color="#D6AA48"/>
</linearGradient>
<linearGradient id="paint2_linear_2050_701" x1="105.97" y1="126.747" x2="160.824" y2="312.395" gradientUnits="userSpaceOnUse">
<stop stop-color="#D6AA48"/>
<stop offset="0.495" stop-color="#FFE9B1"/>
<stop offset="1" stop-color="#D6AA48"/>
</linearGradient>
<linearGradient id="paint3_linear_2050_701" x1="105.97" y1="126.747" x2="160.824" y2="312.395" gradientUnits="userSpaceOnUse">
<stop stop-color="#D6AA48"/>
<stop offset="0.495" stop-color="#FFE9B1"/>
<stop offset="1" stop-color="#D6AA48"/>
</linearGradient>
<linearGradient id="paint4_linear_2050_701" x1="105.97" y1="126.747" x2="160.824" y2="312.395" gradientUnits="userSpaceOnUse">
<stop stop-color="#D6AA48"/>
<stop offset="0.495" stop-color="#FFE9B1"/>
<stop offset="1" stop-color="#D6AA48"/>
</linearGradient>
<linearGradient id="paint5_linear_2050_701" x1="105.97" y1="126.747" x2="160.824" y2="312.395" gradientUnits="userSpaceOnUse">
<stop stop-color="#D6AA48"/>
<stop offset="0.495" stop-color="#FFE9B1"/>
<stop offset="1" stop-color="#D6AA48"/>
</linearGradient>
<linearGradient id="paint6_linear_2050_701" x1="105.97" y1="126.747" x2="160.824" y2="312.395" gradientUnits="userSpaceOnUse">
<stop stop-color="#D6AA48"/>
<stop offset="0.495" stop-color="#FFE9B1"/>
<stop offset="1" stop-color="#D6AA48"/>
</linearGradient>
<linearGradient id="paint7_linear_2050_701" x1="105.97" y1="126.747" x2="160.824" y2="312.395" gradientUnits="userSpaceOnUse">
<stop stop-color="#D6AA48"/>
<stop offset="0.495" stop-color="#FFE9B1"/>
<stop offset="1" stop-color="#D6AA48"/>
</linearGradient>
<linearGradient id="paint8_linear_2050_701" x1="468.499" y1="56.2207" x2="468.499" y2="180.305" gradientUnits="userSpaceOnUse">
<stop stop-color="#FFE1B9"/>
<stop offset="0.587469" stop-color="#FFE1B9" stop-opacity="0"/>
<stop offset="0.885417" stop-color="#FFE1B9" stop-opacity="0.822686"/>
<stop offset="1" stop-color="#DB7F00" stop-opacity="0.6"/>
</linearGradient>
<linearGradient id="paint9_linear_2050_701" x1="468.499" y1="56.2207" x2="468.499" y2="180.305" gradientUnits="userSpaceOnUse">
<stop stop-color="#FFE1B9"/>
<stop offset="0.587469" stop-color="#FFE1B9" stop-opacity="0"/>
<stop offset="0.885417" stop-color="#FFE1B9" stop-opacity="0.822686"/>
<stop offset="1" stop-color="#DB7F00" stop-opacity="0.6"/>
</linearGradient>
<linearGradient id="paint10_linear_2050_701" x1="468.499" y1="56.2207" x2="468.499" y2="180.305" gradientUnits="userSpaceOnUse">
<stop stop-color="#FFE1B9"/>
<stop offset="0.587469" stop-color="#FFE1B9" stop-opacity="0"/>
<stop offset="0.885417" stop-color="#FFE1B9" stop-opacity="0.822686"/>
<stop offset="1" stop-color="#DB7F00" stop-opacity="0.6"/>
</linearGradient>
<linearGradient id="paint11_linear_2050_701" x1="468.499" y1="56.2207" x2="468.499" y2="180.305" gradientUnits="userSpaceOnUse">
<stop stop-color="#FFE1B9"/>
<stop offset="0.587469" stop-color="#FFE1B9" stop-opacity="0"/>
<stop offset="0.885417" stop-color="#FFE1B9" stop-opacity="0.822686"/>
<stop offset="1" stop-color="#DB7F00" stop-opacity="0.6"/>
</linearGradient>
<linearGradient id="paint12_linear_2050_701" x1="468.499" y1="56.2207" x2="468.499" y2="180.305" gradientUnits="userSpaceOnUse">
<stop stop-color="#FFE1B9"/>
<stop offset="0.587469" stop-color="#FFE1B9" stop-opacity="0"/>
<stop offset="0.885417" stop-color="#FFE1B9" stop-opacity="0.822686"/>
<stop offset="1" stop-color="#DB7F00" stop-opacity="0.6"/>
</linearGradient>
<linearGradient id="paint13_linear_2050_701" x1="468.499" y1="56.2207" x2="468.499" y2="180.305" gradientUnits="userSpaceOnUse">
<stop stop-color="#FFE1B9"/>
<stop offset="0.587469" stop-color="#FFE1B9" stop-opacity="0"/>
<stop offset="0.885417" stop-color="#FFE1B9" stop-opacity="0.822686"/>
<stop offset="1" stop-color="#DB7F00" stop-opacity="0.6"/>
</linearGradient>
<linearGradient id="paint14_linear_2050_701" x1="468.499" y1="56.2207" x2="468.499" y2="180.305" gradientUnits="userSpaceOnUse">
<stop stop-color="#FFE1B9"/>
<stop offset="0.587469" stop-color="#FFE1B9" stop-opacity="0"/>
<stop offset="0.885417" stop-color="#FFE1B9" stop-opacity="0.822686"/>
<stop offset="1" stop-color="#DB7F00" stop-opacity="0.6"/>
</linearGradient>
<linearGradient id="paint15_linear_2050_701" x1="468.499" y1="56.2207" x2="468.499" y2="180.305" gradientUnits="userSpaceOnUse">
<stop stop-color="#FFE1B9"/>
<stop offset="0.587469" stop-color="#FFE1B9" stop-opacity="0"/>
<stop offset="0.885417" stop-color="#FFE1B9" stop-opacity="0.822686"/>
<stop offset="1" stop-color="#DB7F00" stop-opacity="0.6"/>
</linearGradient>
</defs>
</svg>
